<svg width="68" height="29" viewBox="0 0 68 29" fill="none" xmlns="http://www.w3.org/2000/svg">
<path d="M12.7124 3.67566C13.4921 2.67321 14.049 1.33661 13.8819 0C12.7124 0.0556919 11.3201 0.779686 10.4847 1.72645C9.7607 2.56183 9.0924 3.95412 9.25948 5.23504C10.5961 5.40211 11.877 4.67812 12.7124 3.67566ZM13.8819 5.56919C11.9884 5.4578 10.3733 6.62733 9.48224 6.62733C8.59117 6.62733 7.19888 5.62488 5.6952 5.62488C3.74598 5.68057 1.96384 6.73872 0.961386 8.52086C-1.04352 12.0294 0.404467 17.2088 2.40937 20.0491C3.35614 21.4414 4.52567 23.0007 6.02935 22.9451C7.47734 22.8894 8.03425 21.9983 9.7607 21.9983C11.4872 21.9983 11.9884 22.9451 13.5478 22.8894C15.1071 22.8337 16.1096 21.4971 17.0563 20.0491C18.1702 18.434 18.6157 16.8746 18.6157 16.8189C18.56 16.7633 15.5527 15.6494 15.5527 12.1965C15.497 9.30054 17.8917 7.90825 18.0031 7.85256C16.7222 5.84765 14.6059 5.62488 13.8819 5.56919Z" fill="white"/>
<path d="M30.2559 1.61523C34.3771 1.61523 37.2174 4.45552 37.2174 8.52103C37.2174 12.6422 34.3214 15.4825 30.1445 15.4825H25.6335V22.6668H22.3477V1.61523H30.2559ZM25.6335 12.7536H29.3648C32.2051 12.7536 33.8202 11.1942 33.8202 8.57672C33.8202 5.90351 32.2051 4.39983 29.3648 4.39983H25.5778V12.7536H25.6335ZM38.0528 18.3785C38.0528 15.7053 40.1134 14.0345 43.789 13.8118L48.0216 13.589V12.4195C48.0216 10.693 46.8521 9.69056 44.9586 9.69056C43.1207 9.69056 42.0069 10.5816 41.7284 11.9182H38.7211C38.8881 9.13364 41.2829 7.07304 45.0699 7.07304C48.8013 7.07304 51.1961 9.02226 51.1961 12.141V22.7225H48.1887V20.2163H48.133C47.2419 21.9428 45.2927 23.0009 43.2878 23.0009C40.1691 23.0009 38.0528 21.1074 38.0528 18.3785ZM48.0216 16.9862V15.761L44.2346 15.9837C42.341 16.0951 41.2829 16.9305 41.2829 18.2671C41.2829 19.6037 42.3967 20.4948 44.0675 20.4948C46.2952 20.4948 48.0216 18.9911 48.0216 16.9862ZM53.9806 28.403V25.8412C54.2034 25.8969 54.7603 25.8969 54.9831 25.8969C56.4311 25.8969 57.2108 25.2843 57.712 23.7249C57.712 23.6692 57.9905 22.7782 57.9905 22.7782L52.4213 7.40719H55.8185L59.7169 19.9379H59.7726L63.671 7.40719H67.0125L61.2763 23.6135C59.9397 27.3449 58.436 28.5144 55.2616 28.5144C55.0388 28.4587 54.2591 28.4587 53.9806 28.403Z" fill="white"/>
</svg>
