<svg width="92" height="25" viewBox="0 0 92 25" fill="none" xmlns="http://www.w3.org/2000/svg">
<path d="M14.5232 11.3626C14.4989 8.66332 16.734 7.35008 16.8362 7.28894C15.5704 5.44389 13.6084 5.19179 12.9189 5.17169C11.2711 4.99832 9.67266 6.15745 8.83324 6.15745C7.97707 6.15745 6.68443 5.18844 5.29126 5.21692C3.49849 5.24456 1.82133 6.28224 0.901491 7.89363C-0.996834 11.1792 0.418952 16.0075 2.23769 18.6633C3.14748 19.9648 4.21058 21.4162 5.60207 21.3652C6.9634 21.3099 7.47191 20.4983 9.11472 20.4983C10.7425 20.4983 11.22 21.3652 12.6391 21.3325C14.1001 21.3099 15.02 20.026 15.8979 18.7136C16.9493 17.2236 17.3715 15.7546 17.3883 15.6792C17.3548 15.6675 14.5517 14.5972 14.5232 11.3626ZM11.8424 3.42462C12.5746 2.50921 13.0756 1.26382 12.9365 0C11.8768 0.0469012 10.5515 0.732831 9.78827 1.62814C9.11305 2.41709 8.50987 3.71022 8.66569 4.9263C9.85612 5.01508 11.0784 4.3258 11.8424 3.42462Z" fill="white"/>
<path d="M34.2421 21.1784H32.3396L31.2975 17.9045H27.6751L26.6823 21.1784H24.8301L28.4198 10.0327H30.6365L34.2421 21.1784ZM30.9833 16.531L30.0408 13.6206C29.9411 13.3233 29.7535 12.6231 29.4787 11.5209H29.4452C29.3346 11.995 29.1579 12.6951 28.9157 13.6206L27.9892 16.531H30.9833ZM43.4556 17.0611C43.4556 18.428 43.0845 19.5084 42.3414 20.3015C41.6762 21.0075 40.8494 21.3601 39.8634 21.3601C38.7986 21.3601 38.0329 20.9807 37.568 20.2203V24.4372H35.7819V15.7831C35.7819 14.9246 35.7593 14.0444 35.7157 13.1415H37.2865L37.3862 14.4154H37.4197C38.0153 13.4556 38.9192 12.9757 40.1323 12.9757C41.0806 12.9757 41.8723 13.3501 42.5056 14.0997C43.1381 14.8509 43.4556 15.8375 43.4556 17.0611ZM41.636 17.1265C41.636 16.3442 41.4601 15.6993 41.1066 15.191C40.7204 14.6625 40.2018 14.3978 39.5517 14.3978C39.1111 14.3978 38.7106 14.5452 38.3529 14.8358C37.9944 15.129 37.7598 15.5117 37.6501 15.9858C37.6011 16.163 37.5732 16.3455 37.5671 16.5293V17.8702C37.5671 18.4539 37.7464 18.9472 38.105 19.3509C38.4635 19.7529 38.9293 19.9548 39.5023 19.9548C40.175 19.9548 40.6986 19.6943 41.0731 19.1776C41.4484 18.6591 41.636 17.9757 41.636 17.1265ZM52.7018 17.0611C52.7018 18.428 52.3307 19.5084 51.5876 20.3015C50.9216 21.0075 50.0956 21.3601 49.1087 21.3601C48.0439 21.3601 47.2782 20.9807 46.8133 20.2203V24.4372H45.0272V15.7831C45.0272 14.9246 45.0046 14.0444 44.961 13.1415H46.5318L46.6315 14.4154H46.665C47.2598 13.4556 48.1637 12.9757 49.3776 12.9757C50.3251 12.9757 51.1168 13.3501 51.7518 14.0997C52.3834 14.8509 52.7018 15.8375 52.7018 17.0611ZM50.8814 17.1265C50.8814 16.3442 50.7046 15.6993 50.3511 15.191C49.9649 14.6625 49.448 14.3978 48.7979 14.3978C48.3572 14.3978 47.9568 14.5452 47.5974 14.8358C47.2389 15.129 47.0051 15.5117 46.8954 15.9858C46.8409 16.2069 46.8116 16.3869 46.8116 16.5293V17.8702C46.8116 18.4539 46.9917 18.9472 47.3486 19.3509C47.7072 19.7521 48.1729 19.9548 48.7476 19.9548C49.4212 19.9548 49.9448 19.6943 50.3184 19.1776C50.6937 18.6591 50.8814 17.9757 50.8814 17.1265ZM63.0395 18.0519C63.0395 19.0008 62.7078 19.7722 62.0485 20.3677C61.323 21.0176 60.3102 21.3434 59.0117 21.3434C57.812 21.3434 56.8503 21.1122 56.1248 20.6491L56.5378 19.1608C57.3211 19.6248 58.1815 19.8559 59.1181 19.8559C59.7916 19.8559 60.3152 19.7035 60.6888 19.4012C61.0633 19.098 61.2526 18.6926 61.2526 18.1868C61.2526 17.7337 61.096 17.3543 60.7885 17.0452C60.4794 16.737 59.9684 16.4498 59.2504 16.1859C57.2985 15.4581 56.3217 14.3936 56.3217 12.9933C56.3217 12.0787 56.6668 11.33 57.3554 10.7446C58.0441 10.16 58.9572 9.86768 60.0932 9.86768C61.1077 9.86768 61.953 10.0444 62.624 10.397L62.1758 11.8526C61.5442 11.5109 60.8312 11.34 60.0337 11.34C59.4037 11.34 58.9095 11.495 58.5559 11.8032C58.2585 12.0787 58.1077 12.4146 58.1077 12.8132C58.1077 13.2529 58.2795 13.6181 58.6213 13.9045C58.9178 14.1683 59.459 14.4556 60.2415 14.7638C61.2015 15.1508 61.9069 15.6013 62.3584 16.1189C62.8133 16.6365 63.0395 17.2822 63.0395 18.0519ZM68.9599 14.4816H66.9912V18.3836C66.9912 19.3761 67.338 19.871 68.0333 19.871C68.3525 19.871 68.6172 19.8442 68.8267 19.7881L68.8761 21.1441C68.5242 21.2755 68.061 21.3417 67.4871 21.3417C66.7817 21.3417 66.2305 21.1265 65.8326 20.696C65.4363 20.2655 65.2369 19.5444 65.2369 18.5293V14.4782H64.0641V13.1382H65.2369V11.6667L66.9912 11.1374V13.1382H68.9599V14.4816ZM77.8249 17.0938C77.8249 18.3292 77.4713 19.3434 76.7659 20.1365C76.0279 20.9531 75.0461 21.3601 73.8221 21.3601C72.6409 21.3601 71.7018 20.969 71.0014 20.1876C70.3011 19.4045 69.9509 18.4179 69.9509 17.2278C69.9509 15.9824 70.3128 14.9623 71.0341 14.1692C71.7571 13.3752 72.7305 12.9782 73.9545 12.9782C75.134 12.9782 76.0815 13.3702 76.7986 14.1524C77.4839 14.9112 77.8249 15.8911 77.8249 17.0938ZM75.9734 17.1348C75.9734 16.3987 75.8143 15.7672 75.4951 15.2387C75.1206 14.6005 74.5845 14.2814 73.89 14.2814C73.1745 14.2814 72.6258 14.6005 72.2522 15.2387C71.9322 15.7672 71.773 16.4096 71.773 17.1683C71.773 17.9054 71.9322 18.5385 72.2522 19.0653C72.6384 19.7035 73.1771 20.0226 73.8749 20.0226C74.5577 20.0226 75.093 19.6968 75.48 19.0494C75.8084 18.5084 75.9734 17.8727 75.9734 17.1348ZM83.6329 14.7119C83.4472 14.6784 83.2587 14.6618 83.07 14.6625C82.4417 14.6625 81.9558 14.8987 81.614 15.3744C81.3174 15.7931 81.1683 16.3224 81.1683 16.9615V21.1784H79.3822V15.6725C79.3838 14.8289 79.3665 13.9853 79.3303 13.1424H80.886L80.9513 14.6801H81.0007C81.1901 14.1516 81.4866 13.7253 81.8938 13.4062C82.2664 13.1274 82.7193 12.9764 83.1847 12.9757C83.3498 12.9757 83.4989 12.9874 83.6313 13.0084L83.6329 14.7119ZM91.6208 16.7797C91.6253 17.0512 91.6035 17.3224 91.5555 17.5896H86.1973C86.2174 18.3836 86.4771 18.9916 86.9747 19.4104C87.4262 19.7839 88.0101 19.9715 88.7272 19.9715C89.5206 19.9715 90.2444 19.8459 90.8953 19.5921L91.1751 20.8308C90.4145 21.1625 89.5164 21.3275 88.4801 21.3275C87.2335 21.3275 86.2551 20.9606 85.543 20.2286C84.8326 19.4958 84.4765 18.5109 84.4765 17.2772C84.4765 16.0662 84.8074 15.057 85.4701 14.2521C86.1637 13.3928 87.1012 12.9632 88.2807 12.9632C89.4393 12.9632 90.3164 13.3928 90.9121 14.2521C91.3837 14.933 91.6208 15.7772 91.6208 16.7797ZM89.9177 16.3166C89.9302 15.7864 89.813 15.33 89.5708 14.9439C89.2617 14.4464 88.7859 14.1985 88.1484 14.1985C87.5645 14.1985 87.0886 14.4405 86.7267 14.9263C86.4293 15.3124 86.2525 15.7764 86.1981 16.3149L89.9177 16.3166Z" fill="white"/>
<path d="M27.1593 6.09246C26.6625 6.09246 26.2327 6.06817 25.875 6.02713V0.638522C26.3753 0.561257 26.8809 0.523173 27.3871 0.524619C29.4354 0.524619 30.3787 1.53216 30.3787 3.17454C30.3787 5.06901 29.2645 6.09246 27.1593 6.09246ZM27.4592 1.21557C27.1827 1.21557 26.9473 1.23232 26.7521 1.27253V5.36884C26.8577 5.38559 27.0604 5.39313 27.3452 5.39313C28.6873 5.39313 29.4513 4.62931 29.4513 3.19882C29.4513 1.92328 28.7602 1.21557 27.4592 1.21557ZM33.3183 6.1335C32.1639 6.1335 31.4158 5.27169 31.4158 4.10167C31.4158 2.88224 32.1799 2.01289 33.3837 2.01289C34.5213 2.01289 35.2862 2.83366 35.2862 4.03718C35.2862 5.27169 34.4979 6.1335 33.3183 6.1335ZM33.3519 2.65443C32.7177 2.65443 32.3114 3.2474 32.3114 4.07655C32.3114 4.88978 32.7261 5.48274 33.3435 5.48274C33.9609 5.48274 34.3756 4.84874 34.3756 4.0598C34.3756 3.25578 33.9693 2.65443 33.3519 2.65443ZM41.8692 2.09413L40.6335 6.04388H39.8284L39.3166 4.32864C39.1893 3.90908 39.0833 3.48336 38.9991 3.0531H38.9823C38.9178 3.48358 38.7955 3.9149 38.6657 4.32864L38.1211 6.04388H37.3077L36.1449 2.09413H37.0471L37.4945 3.97186C37.6 4.41909 37.6888 4.8412 37.7626 5.23986H37.7793C37.8438 4.90737 37.9494 4.49196 38.1044 3.98023L38.6657 2.09497H39.3811L39.9181 3.94003C40.0479 4.38727 40.1535 4.82613 40.2356 5.2407H40.259C40.316 4.8345 40.4056 4.40318 40.5271 3.94003L41.0071 2.09497L41.8692 2.09413ZM46.4181 6.04388H45.5402V3.77588C45.5402 3.07738 45.2721 2.7273 44.7435 2.7273C44.2232 2.7273 43.8655 3.17454 43.8655 3.69464V6.04388H42.9876V3.22311C42.9876 2.87387 42.9792 2.49949 42.9549 2.0933H43.7273L43.7683 2.70301H43.7926C44.0289 2.2809 44.5081 2.01289 45.0451 2.01289C45.8744 2.01289 46.419 2.6469 46.419 3.67872L46.4181 6.04388ZM48.8392 6.04388H47.9604V0.281738H48.8392V6.04388ZM52.0402 6.1335C50.8867 6.1335 50.1377 5.27169 50.1377 4.10167C50.1377 2.88224 50.9017 2.01289 52.1047 2.01289C53.2432 2.01289 54.0072 2.83366 54.0072 4.03718C54.0081 5.27169 53.2189 6.1335 52.0402 6.1335ZM52.0729 2.65443C51.4387 2.65443 51.0324 3.2474 51.0324 4.07655C51.0324 4.88978 51.4479 5.48274 52.0637 5.48274C52.6819 5.48274 53.0958 4.84874 53.0958 4.0598C53.0966 3.25578 52.6911 2.65443 52.0729 2.65443ZM57.4688 6.04388L57.4051 5.58911H57.3817C57.1136 5.95511 56.7224 6.1335 56.2264 6.1335C55.5185 6.1335 55.0159 5.63769 55.0159 4.97102C55.0159 3.99614 55.8612 3.49196 57.3247 3.49196V3.41909C57.3247 2.89899 57.0491 2.63852 56.5045 2.63852C56.115 2.63852 55.7732 2.73651 55.4725 2.93165L55.294 2.3546C55.6593 2.1268 56.115 2.01289 56.6503 2.01289C57.6824 2.01289 58.2035 2.55728 58.2035 3.6469V5.10167C58.2035 5.50033 58.2211 5.80938 58.2605 6.04472L57.4688 6.04388ZM57.3482 4.07655C56.373 4.07655 55.8838 4.31273 55.8838 4.87303C55.8838 5.2876 56.1359 5.49028 56.4861 5.49028C56.9326 5.49028 57.3482 5.14941 57.3482 4.68626V4.07655ZM62.4668 6.04388L62.4257 5.40988H62.4014C62.1493 5.88894 61.7254 6.1335 61.1331 6.1335C60.1806 6.1335 59.4752 5.29598 59.4752 4.11758C59.4752 2.88224 60.2065 2.01206 61.2051 2.01206C61.7337 2.01206 62.1082 2.19045 62.3193 2.54891H62.3369V0.281738H63.2157V4.97939C63.2157 5.3613 63.2249 5.71892 63.2484 6.04388H62.4668ZM62.3369 3.71976C62.3369 3.167 61.9708 2.69547 61.412 2.69547C60.7611 2.69547 60.3632 3.27253 60.3632 4.08492C60.3632 4.8814 60.7762 5.42663 61.3945 5.42663C61.9465 5.42663 62.3369 4.94673 62.3369 4.37805V3.71976ZM68.7875 6.1335C67.634 6.1335 66.8859 5.27169 66.8859 4.10167C66.8859 2.88224 67.6499 2.01289 68.8529 2.01289C69.9914 2.01289 70.7554 2.83366 70.7554 4.03718C70.7562 5.27169 69.9679 6.1335 68.7875 6.1335ZM68.8202 2.65443C68.1869 2.65443 67.7806 3.2474 67.7806 4.07655C67.7806 4.88978 68.1953 5.48274 68.8118 5.48274C69.4301 5.48274 69.8439 4.84874 69.8439 4.0598C69.8456 3.25578 69.4393 2.65443 68.8202 2.65443ZM75.4769 6.04388H74.5981V3.77588C74.5981 3.07738 74.33 2.7273 73.8014 2.7273C73.2812 2.7273 72.9243 3.17454 72.9243 3.69464V6.04388H72.0455V3.22311C72.0455 2.87387 72.0371 2.49949 72.0128 2.0933H72.7852L72.8263 2.70301H72.8506C73.086 2.2809 73.566 2.01206 74.1022 2.01206C74.9315 2.01206 75.4769 2.64606 75.4769 3.67789V6.04388ZM81.3838 2.75243H80.4179V4.67035C80.4179 5.15862 80.5871 5.40234 80.9289 5.40234C81.0839 5.40234 81.2138 5.38559 81.3185 5.3613L81.3428 6.02797C81.1727 6.0933 80.9449 6.12596 80.6617 6.12596C79.9697 6.12596 79.5559 5.74405 79.5559 4.74405V2.75243H78.9795V2.09413H79.5559V1.37052L80.4179 1.11005V2.0933H81.3838V2.75243ZM86.0316 6.04388H85.1545V3.79263C85.1545 3.08576 84.8873 2.72814 84.3578 2.72814C83.9029 2.72814 83.479 3.03718 83.479 3.66281V6.04388H82.6019V0.281738H83.479V2.65443H83.4966C83.7731 2.22395 84.1735 2.01206 84.6845 2.01206C85.5206 2.01206 86.0316 2.66197 86.0316 3.69464V6.04388ZM90.7934 4.28006H88.1587C88.1754 5.02797 88.6705 5.45008 89.4036 5.45008C89.7931 5.45008 90.1517 5.38475 90.4683 5.26331L90.6049 5.87303C90.2312 6.03551 89.7914 6.11675 89.2796 6.11675C88.0439 6.11675 87.3125 5.33618 87.3125 4.12596C87.3125 2.9149 88.0615 2.00452 89.1807 2.00452C90.1902 2.00452 90.8235 2.75243 90.8235 3.88224C90.8292 4.01557 90.8191 4.14911 90.7934 4.28006ZM89.9883 3.65444C89.9883 3.04472 89.6808 2.61423 89.1196 2.61423C88.6152 2.61423 88.2165 3.0531 88.1595 3.65444H89.9883Z" fill="white"/>
</svg>
