<svg width="71" height="28" viewBox="0 0 71 28" fill="none" xmlns="http://www.w3.org/2000/svg">
<path d="M33.259 13.6247V21.7967H30.6211V1.58643H37.4797C39.1504 1.58643 40.7332 2.20152 41.9642 3.34384C43.1953 4.39828 43.8108 5.97996 43.8108 7.6495C43.8108 9.31904 43.1953 10.8128 41.9642 11.9552C40.7332 13.0975 39.2384 13.7126 37.4797 13.7126L33.259 13.6247ZM33.259 4.0468V11.0764H37.6556C38.6229 11.0764 39.5901 10.725 40.2056 10.022C41.6125 8.70394 41.6125 6.50718 40.2935 5.18912L40.2056 5.10125C39.5022 4.39828 38.6229 3.95893 37.6556 4.0468H33.259Z" fill="white"/>
<path d="M49.8798 7.56152C51.8143 7.56152 53.3091 8.08875 54.4522 9.14319C55.5953 10.1976 56.1229 11.6036 56.1229 13.361V21.7966H53.6608V19.8634H53.5729C52.5177 21.4451 51.0229 22.2359 49.2642 22.2359C47.7694 22.2359 46.4504 21.7966 45.3953 20.9179C44.428 20.0391 43.8125 18.809 43.8125 17.4909C43.8125 16.085 44.3401 14.9427 45.3953 14.0639C46.4504 13.1852 47.9453 12.8338 49.7039 12.8338C51.2867 12.8338 52.5177 13.0974 53.485 13.7125V13.0974C53.485 12.2187 53.1332 11.34 52.4298 10.8127C51.7263 10.1976 50.847 9.84616 49.8798 9.84616C48.3849 9.84616 47.2418 10.4613 46.4504 11.6914L44.1642 10.2855C45.5711 8.44023 47.4177 7.56152 49.8798 7.56152ZM46.5384 17.5788C46.5384 18.2817 46.8901 18.8968 47.4177 19.2483C48.0332 19.6877 48.7367 19.9513 49.4401 19.9513C50.4953 19.9513 51.5505 19.5119 52.3418 18.7211C53.2212 17.9303 53.6608 16.9637 53.6608 15.9092C52.8694 15.2941 51.7263 14.9427 50.2315 14.9427C49.1763 14.9427 48.297 15.2063 47.5935 15.7335C46.8901 16.1728 46.5384 16.7879 46.5384 17.5788Z" fill="white"/>
<path d="M70.3677 8.00098L61.6625 27.9476H59.0246L62.278 21.0058L56.5625 8.08885H59.3763L63.5091 18.0182H63.597L67.6419 8.08885H70.3677V8.00098Z" fill="white"/>
<path d="M22.7962 11.8671C22.7962 11.0763 22.7083 10.2855 22.6203 9.49463H11.6289V13.976H17.872C17.6082 15.382 16.8169 16.7 15.5858 17.4909V20.3906H19.3669C21.5652 18.3696 22.7962 15.382 22.7962 11.8671Z" fill="white"/>
<path d="M11.6279 23.2024C14.7934 23.2024 17.4313 22.148 19.3658 20.3906L15.5848 17.4909C14.5296 18.1938 13.2106 18.6332 11.6279 18.6332C8.63819 18.6332 6.00025 16.6122 5.12093 13.8003H1.25195V16.7879C3.27438 20.7421 7.23129 23.2024 11.6279 23.2024Z" fill="white"/>
<path d="M5.122 13.8005C4.59442 12.3946 4.59442 10.8129 5.122 9.31914V6.33154H1.25302C-0.417674 9.58276 -0.417674 13.4491 1.25302 16.7881L5.122 13.8005Z" fill="white"/>
<path d="M11.6298 4.574C13.3005 4.574 14.8832 5.18909 16.1143 6.33141L19.4557 2.99233C17.3453 1.05917 14.5315 -0.083143 11.7177 0.00472756C7.32113 0.00472756 3.27629 2.4651 1.3418 6.41928L5.21078 9.40688C6.00216 6.59502 8.6401 4.574 11.6298 4.574Z" fill="white"/>
</svg>
