<svg width="712" height="712" viewBox="0 0 712 712" fill="none" xmlns="http://www.w3.org/2000/svg">
<path d="M340.652 0.507996C315.009 1.73175 293.593 4.84674 268.896 11.0211C187.572 31.3798 114.926 80.8305 66.3095 148.971C8.29261 230.295 -13.0118 332.701 7.79199 429.877C32.8789 546.968 114.592 643.422 225.508 686.865C245.533 694.708 263.445 700.048 283.08 704.053C347.16 717.069 409.738 713.176 470.536 692.483C536.118 670.122 594.636 628.292 636.911 573.668C657.325 547.246 673.234 519.489 685.638 488.562C712.06 422.646 718.235 350.89 703.55 281.915C680.966 176.283 611.49 86.1705 515.426 38.0549C492.23 26.4292 459.801 14.5255 438.83 9.96423C410.573 3.84546 394.108 1.62048 368.743 0.452332C355.393 -0.159546 354.225 -0.159546 340.652 0.507996ZM379.033 2.95544C385.319 3.40045 392.439 4.01233 394.886 4.29047C412.075 6.34857 414.3 7.12732 402.674 7.12732C381.481 7.18298 358.953 11.9111 335.646 21.1448C327.747 24.2598 314.175 30.8236 307.555 34.6617L303.105 37.2761L286.974 36.3861C242.307 33.883 207.041 37.2761 186.905 46.0092C181.843 48.2343 183.678 46.7324 190.631 43.0611C214.884 30.2117 245.923 18.3636 270.731 12.4673C279.465 10.4092 281.634 9.90857 285.861 9.07422C316.678 2.89984 348.996 0.786072 379.033 2.95544ZM421.586 9.57483C429.875 10.4648 436.327 11.5773 436.327 12.1336C436.327 12.3561 435.27 12.8011 433.991 13.1905C430.598 14.1917 425.035 17.3067 420.196 20.9224C413.076 26.2623 401.172 39.0005 394.33 48.6792C393.385 50.0142 392.216 51.0711 391.716 51.0711C391.16 51.0711 385.82 50.0698 379.756 48.8461C357.34 44.3961 328.915 40.0017 312.84 38.4999C305.72 37.8323 305.72 37.7767 313.451 33.6605C340.596 19.2536 366.073 11.5217 393.774 9.18549C399.726 8.68488 415.134 8.90735 421.586 9.57483ZM447.786 14.6923C459.69 18.1411 468.311 34.328 472.428 60.8055C474.263 72.7092 474.263 72.7648 473.373 72.7648C472.928 72.7648 468.979 71.6523 464.585 70.3174C445.227 64.3099 426.871 59.4149 400.727 53.2961C397.835 52.6286 395.276 51.9611 394.998 51.7943C393.83 51.1267 409.683 32.4924 416.58 26.4849C429.04 15.5823 438.552 11.9667 447.786 14.6923ZM465.196 20.2548C496.903 32.8261 526.829 57.9686 548.356 90.2867C553.585 98.1299 557.033 103.804 557.033 104.471C557.033 104.805 556.088 104.582 554.864 103.97C551.36 102.135 528.498 92.623 518.151 88.6736C507.694 84.6686 491.674 78.9392 482.774 76.1024C479.715 75.1011 476.933 74.0999 476.6 73.8217C476.266 73.5436 475.821 71.5967 475.654 69.5386C474.764 60.4717 471.76 46.1761 468.923 37.888C466.865 31.9361 463.194 24.7605 460.135 21.0336C458.688 19.198 457.743 17.6961 458.132 17.6961C458.466 17.6961 461.636 18.8642 465.196 20.2548ZM494.066 30.3786C555.531 56.4111 608.82 99.9655 647.201 155.646C651.151 161.375 657.27 170.999 658.271 173.001C658.827 174.169 658.827 174.169 657.715 172.89C657.047 172.111 654.711 169.385 652.541 166.827C637.968 149.75 605.594 128.112 566.211 109.088L560.649 106.418L556.922 100.132C543.016 76.8255 525.883 57.0229 506.693 42.0042C501.241 37.7767 489.171 29.7111 485.444 27.7642C484.109 27.0967 483.052 26.4292 483.052 26.2623C483.052 25.7617 484.999 26.4849 494.066 30.3786ZM287.975 38.3886C294.038 38.7224 298.878 39.1674 298.822 39.3898C298.711 39.6124 294.539 42.5605 289.477 45.9536C274.236 56.2442 261.386 66.7017 246.535 80.9974L238.024 89.1743L229.958 88.8405C216.33 88.2286 194.303 88.2842 182.788 89.0074C166.101 90.0086 168.215 90.4536 166.156 85.3361C155.921 59.693 181.286 42.2823 234.686 38.2773C249.983 37.1649 267.06 37.1649 287.975 38.3886ZM323.408 41.6705C340.763 43.7842 353.056 45.7311 372.358 49.3467C381.147 51.0155 390.436 52.9067 390.659 53.0736C390.77 53.1849 388.1 57.468 384.763 62.5855C376.697 74.8786 369.466 87.3386 362.068 101.523C360.51 104.582 359.676 105.584 358.841 105.584C358.174 105.584 353.279 104.694 347.939 103.637C327.525 99.6317 303.161 95.7936 283.358 93.4017C268.395 91.6217 264.891 91.288 245.978 89.7305C243.586 89.508 241.64 89.1743 241.64 88.8961C241.64 87.7836 260.941 70.0948 271.121 61.8624C279.798 54.8536 295.93 43.5061 301.381 40.6136C303.828 39.2786 303.495 39.2786 323.408 41.6705ZM170.273 56.2442C167.77 58.7474 166.045 61.0836 164.543 64.0873C162.708 67.8699 162.43 69.038 162.207 73.2098C161.984 78.3273 162.763 82.6105 164.877 87.5055C165.656 89.3967 165.767 90.1199 165.266 90.2311C164.933 90.3423 161.373 90.8986 157.368 91.3992C137.176 94.0136 118.931 99.4092 107.639 106.14C105.08 107.697 102.855 108.81 102.744 108.699C102.466 108.476 117.373 94.3474 123.436 89.063C135.618 78.5499 147.411 69.6498 160.149 61.2505C165.044 58.0242 169.939 54.798 170.996 54.0748C174.222 51.9611 174.055 52.573 170.273 56.2442ZM404.231 56.0773C423.811 60.583 443.892 65.9786 465.641 72.598C471.371 74.3223 474.208 75.4349 474.375 76.0468C475.765 80.9417 476.266 134.898 474.931 136.122C474.653 136.344 470.203 135.232 464.974 133.563C437.773 124.885 401.506 115.151 373.193 108.921C367.408 107.642 362.457 106.474 362.235 106.307C362.012 106.195 363.125 103.692 364.682 100.689C375.696 79.8292 391.883 53.8524 393.83 53.8524C394.275 53.8524 398.947 54.8536 404.231 56.0773ZM488.114 79.9405C512.2 88.0617 539.289 98.6861 555.643 106.474L559.592 108.309L563.541 115.985C570.661 129.836 576.558 144.076 582.009 160.652C585.402 171.054 588.295 181.345 587.905 181.679C587.738 181.846 583.066 179.787 577.503 177.173C549.635 164.101 517.261 151.029 488.058 141.184C482.385 139.237 477.601 137.512 477.434 137.345C477.211 137.179 477.267 130.893 477.545 123.384C477.99 110.701 477.434 86.1705 476.6 78.9949C476.433 77.4374 476.377 76.1024 476.488 76.1024C476.655 76.1024 481.884 77.8267 488.114 79.9405ZM233.463 91.0655L236.188 91.3992L232.072 95.8492C226.398 101.968 216.163 114.094 210.601 121.27C208.042 124.607 205.817 127.277 205.65 127.277C205.428 127.277 202.924 125.497 200.032 123.328C192.133 117.376 182.288 108.476 177.726 103.192C173.555 98.2968 169.883 93.2349 169.883 92.2892C169.883 91.6774 174.333 91.2324 187.127 90.5649C196.528 90.0642 228.679 90.398 233.463 91.0655ZM250.261 92.0111C275.905 93.9023 307.666 98.0742 335.924 103.303C350.943 106.084 357.173 107.364 357.84 107.753C358.285 108.031 356.672 111.869 353.112 119.267C347.383 131.115 337.704 152.587 333.588 162.599C330.973 168.94 330.25 170.276 329.583 169.831C328.248 169.052 290.812 162.599 271.121 159.762L257.548 157.871L247.758 152.754C232.517 144.799 207.708 129.892 207.708 128.612C207.708 127.611 224.952 106.529 232.628 98.1299C239.303 90.843 239.081 91.0099 242.696 91.3436C244.421 91.5105 247.814 91.7886 250.261 92.0111ZM170.106 96.6836C176.614 105.973 186.515 115.652 199.086 125.108C201.979 127.277 204.371 129.169 204.371 129.28C204.371 129.447 203.147 131.227 201.645 133.285C200.143 135.343 196.639 140.405 193.858 144.521L188.796 152.031L168.381 152.142C141.57 152.253 123.714 153.644 104.913 157.092C100.853 157.815 97.237 158.316 96.9589 158.094C96.6807 157.927 95.5126 155.98 94.4001 153.81C88.6707 142.352 88.0032 132.951 92.342 124.051C99.6845 109.032 121.545 98.5192 155.977 93.4017C167.325 91.6774 166.49 91.5105 170.106 96.6836ZM374.194 111.146C396.221 116.041 418.082 121.604 437.996 127.333C446.284 129.725 474.375 138.458 474.653 138.736C475.821 139.904 469.925 203.65 468.367 206.154C468.145 206.487 467.199 206.376 465.697 205.875C433.435 194.695 369.855 177.674 336.369 171.165C334.422 170.832 332.865 170.22 332.865 169.886C332.865 166.938 359.843 108.365 361.178 108.365C361.511 108.365 367.352 109.589 374.194 111.146ZM575.278 115.874C628.178 142.63 660.106 169.831 664.723 191.914C665.947 197.587 665.391 201.87 662.888 206.932C660.83 211.049 655.879 216.389 652.597 218.169L650.761 219.114L640.415 212.217C628.456 204.262 619.945 199.256 602.813 190.022C591.41 183.848 590.464 183.236 590.075 181.623C589.463 178.842 586.07 166.994 584.234 161.209C579.45 146.357 573.331 131.115 566.823 118.099C564.598 113.649 562.985 110.034 563.263 110.034C563.541 110.034 568.993 112.648 575.278 115.874ZM89.8945 124.552C86.1676 133.174 86.9464 142.852 92.2864 153.866L94.7339 159.039L93.3432 159.54C92.5645 159.874 91.5632 160.096 91.1182 160.096C89.5607 160.096 73.8189 165.547 69.0907 167.772C61.9707 171.054 55.0176 175.782 50.4007 180.455C48.2314 182.735 46.3957 184.404 46.3957 184.182C46.3957 183.459 56.3526 167.161 61.5257 159.429C70.092 146.524 89.8945 121.047 90.6732 121.882C90.7845 121.993 90.4507 123.217 89.8945 124.552ZM213.66 135.287C222.226 140.85 233.185 147.302 243.197 152.587C247.202 154.701 250.54 156.647 250.54 156.814C250.54 156.981 248.982 156.925 247.091 156.703C235.465 155.312 216.886 153.699 202.146 152.809C196.472 152.475 191.744 152.086 191.633 151.975C191.243 151.586 205.65 130.615 206.318 130.615C206.429 130.615 209.766 132.729 213.66 135.287ZM485.277 142.24C518.875 153.644 550.97 166.66 580.785 180.956C589.796 185.239 588.906 184.07 591.187 194.584C593.801 206.432 596.805 224.51 597.195 230.74L597.361 233.243L592.911 233.688C586.515 234.355 551.137 234.3 544.24 233.632C539.122 233.132 537.509 232.687 531.112 230.017C517.818 224.454 491.229 214.497 475.821 209.269C473.206 208.434 470.981 207.489 470.815 207.266C470.648 207.044 471.037 202.427 471.76 196.976C473.763 180.789 476.933 146.802 476.933 140.739C476.933 140.071 476.989 139.515 477.1 139.515C477.156 139.515 480.883 140.739 485.277 142.24ZM187.127 154.311C187.127 154.534 184.791 158.594 181.898 163.378C174.556 175.671 167.158 189.299 161.428 201.092L156.533 211.271L152.473 208.712C136.119 198.199 117.707 183.347 108.473 173.224C104.19 168.495 98.6832 161.431 98.6832 160.708C98.6832 159.151 128.554 155.257 147.355 154.367C154.531 154.033 187.127 153.977 187.127 154.311ZM207.152 155.09C219.723 155.869 227.288 156.48 243.308 158.205L256.38 159.651L261.943 162.154C265.002 163.545 271.621 166.549 276.683 168.829C286.696 173.391 304.663 180.789 315.565 184.849C319.348 186.24 322.685 187.519 322.908 187.63C323.13 187.797 321.573 192.47 319.403 198.088C315.955 207.099 309.057 226.123 305.497 236.414C303.995 240.808 304.385 240.697 296.375 239.084C291.368 238.082 286.14 237.137 277.796 235.69C266.003 233.688 244.476 230.517 232.461 229.071C227.288 228.459 222.004 227.847 220.78 227.681C215.496 227.013 201.701 225.789 192.968 225.177C177.393 224.121 178.505 224.399 168.048 218.224C162.93 215.165 158.758 212.328 158.758 211.939C158.758 210.826 166.713 194.472 172.164 184.404C177.226 175.059 188.351 156.147 189.519 154.979C190.353 154.2 191.633 154.2 207.152 155.09ZM279.465 162.933C298.433 165.714 328.526 171.165 329.305 171.889C329.527 172.167 324.799 184.849 324.187 185.628C323.686 186.24 292.203 173.724 278.074 167.327C272.567 164.824 267.394 162.544 266.56 162.21C265.67 161.932 265.002 161.431 265.002 161.153C265.002 160.875 265.67 160.819 266.56 160.93C267.394 161.097 273.179 161.987 279.465 162.933ZM99.9626 166.048C110.031 179.454 127.441 194.584 148.078 207.934C152.083 210.548 155.365 212.94 155.365 213.274C155.421 213.941 151.916 222.174 151.36 222.785C151.138 223.008 144.741 223.23 137.176 223.342C108.251 223.787 85.1107 226.345 65.3082 231.407C60.5801 232.631 56.1301 233.744 55.4626 233.91C54.4057 234.133 53.8495 233.577 51.6245 230.184C48.1757 224.844 44.5045 216.834 43.392 212.217C41.4451 204.429 42.502 195.696 46.1176 189.299C52.8482 177.396 65.9201 169.497 91.452 161.876C95.6239 160.652 96.0132 160.819 99.9626 166.048ZM349.496 175.949C385.263 183.904 423.645 194.25 455.518 204.596C460.413 206.209 465.252 207.767 466.253 208.045C468.367 208.657 468.367 208.712 467.199 216.889C466.086 224.51 466.253 224.176 463.75 223.731C431.432 218.002 388.156 207.155 353.724 196.03C342.543 192.47 326.746 186.963 326.356 186.574C326.078 186.295 329.583 176.728 331.029 173.836C331.418 173.001 332.086 172.334 332.42 172.334C332.753 172.334 340.43 173.947 349.496 175.949ZM671.788 197.476C680.688 215.387 686.028 228.237 691.701 245.48C694.816 254.77 698.432 267.452 698.21 268.12C698.098 268.454 697.208 267.119 696.207 265.172C690.2 253.435 673.79 236.135 656.991 223.842C654.933 222.285 653.265 220.894 653.265 220.727C653.265 220.505 654.766 219.114 656.658 217.612C660.551 214.497 663.166 211.104 665.391 206.487C666.726 203.539 666.893 202.594 666.893 197.087C666.893 192.136 666.615 190.356 665.613 187.63C664.223 183.904 664.223 183.848 664.89 184.237C665.113 184.404 668.228 190.356 671.788 197.476ZM605.65 193.694C610.934 196.586 618.777 201.036 623.005 203.539C631.293 208.434 648.036 219.392 648.592 220.227C648.981 220.839 642.362 223.954 636.521 225.956C627.566 228.904 613.771 231.741 603.48 232.742L599.586 233.076L598.863 227.625C597.25 215.61 595.192 203.929 591.688 187.742L591.354 186.129L593.635 187.297C594.914 187.964 600.31 190.857 605.65 193.694ZM335.924 192.136C373.36 205.041 419.028 217.279 455.518 224.121C460.746 225.066 465.141 226.067 465.419 226.29C466.031 226.79 456.908 279.912 456.018 280.747C455.907 280.914 449.065 278.855 440.888 276.186C397.334 262.057 358.841 251.877 313.952 242.588C310.114 241.809 306.832 240.975 306.554 240.808C306.053 240.307 315.231 214.164 322.685 194.973C324.743 189.689 325.411 188.465 326.134 188.743C326.635 188.966 331.029 190.467 335.924 192.136ZM41.4451 195.752C39.7764 200.591 40.2214 209.602 42.5576 216.389C44.0595 220.672 46.8964 226.457 49.9001 231.185C51.1239 233.132 51.9026 234.912 51.6245 235.134C51.3464 235.412 48.732 236.525 45.8395 237.637C31.8776 243.144 20.4745 252.156 15.9689 261.222C15.1901 262.836 14.4114 264.059 14.3001 263.892C13.4101 263.058 23.4782 233.243 29.5414 218.78C33.7132 208.935 41.5564 192.637 41.8345 193.415C41.9457 193.749 41.7789 194.806 41.4451 195.752ZM479.158 212.495C491.396 216.722 505.08 221.784 515.871 226.012C521.823 228.348 527.775 230.629 529.11 231.129C531.891 232.13 532.225 233.132 529.666 232.742C528.665 232.576 526.106 232.297 523.936 232.13C505.636 230.573 469.702 225.4 468.478 224.176C468.089 223.787 469.035 215.443 470.036 210.826C470.314 209.324 469.758 209.213 479.158 212.495ZM165.6 219.059C169.494 221.339 172.665 223.453 172.665 223.731C172.665 223.954 172.275 224.009 171.775 223.842C171.274 223.676 167.046 223.509 162.318 223.509C157.034 223.509 153.752 223.286 153.752 222.952C153.752 221.673 157.312 214.553 157.868 214.72C158.258 214.831 161.706 216.778 165.6 219.059ZM656.38 225.789C686.473 248.54 702.103 271.29 699.545 288.701C698.154 298.102 690.144 308.17 680.131 313.287L678.296 314.177L671.343 308.337C655.211 294.764 634.908 281.136 610.878 267.786L602.145 262.947L601.867 260.054C600.977 250.32 599.92 235.524 600.143 235.19C600.254 234.967 602.312 234.634 604.704 234.467C618.11 233.41 637.634 228.459 646.59 223.842C648.592 222.785 650.428 221.951 650.65 221.896C650.928 221.84 653.487 223.62 656.38 225.789ZM150.248 225.845C142.627 243.812 134.617 266.674 129.277 285.531C128.331 288.868 127.441 291.983 127.33 292.372C126.996 293.207 127.052 293.262 115.371 285.864C99.0726 275.629 84.8882 265.005 72.9845 254.269C66.5876 248.484 56.8532 238.027 56.5195 236.581C56.0745 234.689 78.8251 229.739 98.127 227.458C102.911 226.902 116.761 225.845 122.88 225.567C124.716 225.456 131.669 225.344 138.399 225.289C147.911 225.177 150.47 225.344 150.248 225.845ZM169.883 225.678L177.949 226.123L183.066 228.96C208.265 243.033 249.371 261.056 288.81 275.24C291.48 276.186 292.258 276.742 292.091 277.409C291.925 277.91 289.7 285.531 287.085 294.431C284.471 303.275 281.912 312.008 281.411 313.732C280.911 315.512 280.299 316.959 280.021 316.959C279.798 316.959 277.128 316.458 274.125 315.846C257.771 312.62 226.51 308.003 202.702 305.277C188.907 303.72 160.204 301.662 146.521 301.272L141.181 301.105L135.396 297.824C132.169 296.044 129.388 294.319 129.221 294.041C128.498 292.929 137.788 263.447 144.296 246.037C147.689 236.97 151.805 226.679 152.473 225.567C152.751 225.066 159.148 225.122 169.883 225.678ZM201.033 227.681C218.055 229.127 227.511 230.184 249.205 233.299C270.509 236.302 302.326 241.698 303.105 242.477C303.272 242.644 294.817 269.288 293.093 273.961C292.926 274.461 291.09 274.016 286.863 272.514C268.785 266.006 247.536 257.496 228.846 249.207C217.276 244.09 185.903 228.626 184.068 227.18C182.788 226.123 181.898 226.123 201.033 227.681ZM497.014 230.962C507.36 232.353 516.427 233.354 524.493 234.077C539.345 235.357 539.289 235.357 550.08 240.085C569.493 248.707 595.359 261.167 598.919 263.67L600.421 264.727V283.361C600.421 299.437 599.253 327.361 598.474 329.586C598.307 330.142 595.415 330.309 586.515 330.309H574.833L568.826 327.305C541.792 313.732 506.303 298.936 469.201 285.753C463.25 283.639 458.243 281.804 458.132 281.637C458.021 281.526 458.188 280.19 458.521 278.744C459.745 273.349 462.526 257.885 464.974 242.977C466.365 234.578 467.588 227.402 467.7 227.069C467.866 226.679 471.538 227.069 478.991 228.292C485.11 229.294 493.176 230.517 497.014 230.962ZM598.53 241.921C599.42 250.987 600.031 261.334 599.698 261.334C599.531 261.334 592.3 257.829 583.622 253.602C574.945 249.374 563.263 243.812 557.59 241.309C551.916 238.806 547.076 236.525 546.798 236.302C546.576 236.08 553.974 235.969 563.208 236.135C572.497 236.247 583.511 236.135 587.627 235.857C599.086 235.079 597.806 234.355 598.53 241.921ZM56.6864 240.363C60.6357 245.258 71.2601 255.771 77.8239 261.278C89.2826 270.845 103.244 280.747 119.431 290.759C122.991 293.04 126.051 295.042 126.218 295.209C126.551 295.821 125.272 300.494 124.604 300.939C124.271 301.161 120.488 301.384 116.205 301.384C106.193 301.384 85.222 302.997 75.9882 304.443C68.312 305.667 66.087 306.056 61.1364 307.057C53.2932 308.615 46.1732 310.562 39.1089 313.009L33.0457 315.179L30.487 312.286C26.7601 308.059 21.142 299.492 18.6389 294.097C14.3001 284.807 13.132 276.352 15.1901 268.954C15.8576 266.562 16.8589 263.67 17.4151 262.557C20.8082 255.938 28.2064 248.929 37.0507 243.979C41.3339 241.587 52.0695 236.914 53.3489 236.859C53.6826 236.859 55.1845 238.416 56.6864 240.363ZM322.852 246.371C357.284 253.657 405.511 266.618 440.499 278.021C445.394 279.634 450.678 281.359 452.18 281.859C453.738 282.304 455.128 282.972 455.295 283.194C455.518 283.472 455.462 284.585 455.24 285.753C454.961 286.866 453.46 293.986 451.902 301.662C450.289 309.282 448.787 315.79 448.565 316.069C447.786 316.903 418.694 310.729 390.937 303.887C361.623 296.6 337.148 289.535 310.336 280.524C295.818 275.685 295.318 275.462 295.485 274.127C295.596 272.681 303.495 247.928 304.83 244.702C305.72 242.532 303.773 242.366 322.852 246.371ZM608.987 268.954C626.787 278.911 644.531 290.147 656.769 299.326C664.668 305.222 676.071 314.678 676.071 315.29C676.071 315.957 665.057 320.129 657.881 322.187C648.648 324.857 635.02 327.361 623.227 328.584C614.438 329.53 600.921 330.42 600.588 330.086C600.421 329.919 600.532 326.693 600.866 322.966C602.034 310.006 602.813 288.312 602.423 277.02C602.201 269.01 602.256 265.784 602.701 265.784C603.035 265.784 605.872 267.23 608.987 268.954ZM14.4114 288.868C17.0814 296.711 21.9764 305.166 27.9839 312.397C29.597 314.344 30.8207 316.013 30.7095 316.124C30.6539 316.18 29.152 316.959 27.4832 317.793C22.7551 320.129 15.4682 325.024 12.3532 327.972C9.07136 331.032 4.45449 337.373 3.56449 340.099C2.73011 342.491 1.72886 342.546 2.11823 340.154C2.28511 339.209 2.56324 335.593 2.73011 332.256C3.17511 324.635 4.34324 313.454 5.78949 303.609C7.01324 295.654 10.4064 278.188 11.4632 274.406C12.1307 272.292 12.1307 272.459 12.5201 278.299C12.7982 282.638 13.3545 285.697 14.4114 288.868ZM311.727 283.083C328.359 288.59 333.198 290.036 354.002 296.099C378.866 303.331 409.071 310.617 436.883 316.18C442.557 317.292 447.396 318.405 447.675 318.683C448.12 319.072 446.562 326.137 441.278 347.831C440.054 352.726 438.886 357.231 438.608 357.899C438.107 359.067 437.94 359.011 429.151 356.063C386.932 341.879 339.929 329.307 293.76 319.74C288.031 318.516 283.08 317.404 282.858 317.237C282.58 317.126 282.969 315.012 283.636 312.676C284.36 310.284 286.974 301.384 289.533 292.873C292.036 284.418 294.261 277.465 294.428 277.465C294.595 277.465 302.382 279.968 311.727 283.083ZM470.926 288.367C504.857 300.494 538.343 314.4 562.596 326.471L570.105 330.253H565.933C562.04 330.309 540.401 329.029 533.671 328.362C509.196 326.026 497.515 324.579 478.435 321.631C464.473 319.517 451.346 317.181 450.956 316.736C450.79 316.625 450.956 315.123 451.346 313.51C452.792 306.891 455.351 294.709 456.13 290.815C457.409 284.251 457.465 284.14 458.243 284.14C458.688 284.14 464.362 286.031 470.926 288.367ZM702.938 287.867C703.105 289.035 703.883 293.763 704.662 298.436C706.665 310.061 708.166 323.578 708.89 336.149C709.557 347.552 709.446 363.461 708.723 360.624C705.886 349.611 703.216 343.659 697.208 335.315C693.148 329.641 686.584 322.076 682.301 318.182C680.855 316.847 679.965 315.624 680.243 315.512C682.69 314.511 688.753 309.894 692.258 306.445C697.32 301.384 700.323 295.821 701.269 289.758C701.603 287.589 702.048 285.809 702.27 285.809C702.437 285.809 702.771 286.754 702.938 287.867ZM132.336 298.436C134.339 299.604 135.952 300.661 135.952 300.827C135.952 301.161 127.608 301.05 127.274 300.661C126.996 300.438 128.164 296.377 128.498 296.377C128.665 296.377 130.389 297.323 132.336 298.436ZM124.159 304.276C123.993 304.999 122.713 310.673 121.323 316.959C117.429 334.147 112.033 366.409 112.033 372.306C112.033 373.084 111.811 373.696 111.588 373.696C110.921 373.696 95.6795 364.685 87.1132 359.234C77.4345 353.059 64.4739 343.77 56.1301 337.095C49.6776 331.866 34.7145 317.793 34.7145 316.903C34.7145 316.514 45.5614 312.787 51.402 311.229C68.312 306.668 93.6214 303.609 118.374 303.164C124.382 303.052 124.382 303.052 124.159 304.276ZM151.972 309.116C182.9 325.414 226.565 344.159 263.611 357.009C266.226 357.899 268.562 358.733 268.84 358.9C269.118 359.067 268.34 363.183 267.116 367.967C264.946 376.811 263.945 381.094 261.108 393.61C260.218 397.392 259.44 400.619 259.273 400.73C259.106 400.897 252.153 399.896 243.809 398.505C221.503 394.834 206.93 392.831 190.743 391.274C185.848 390.773 180.73 390.272 179.34 390.106C173.666 389.494 150.303 388.159 144.852 388.159C138.121 388.159 138.01 388.103 122.157 379.648L113.591 375.087L113.98 371.471C115.76 354.227 121.823 320.574 125.995 305.111L126.551 303.052H133.505H140.458L151.972 309.116ZM167.102 304.221C189.519 305.556 217.943 308.671 241.64 312.286C252.598 313.955 278.964 318.572 279.465 318.906C279.687 319.072 279.02 322.243 278.018 325.97C276.961 329.752 274.736 338.041 273.068 344.437C271.454 350.834 269.841 356.286 269.619 356.508C269.396 356.731 262.777 354.617 254.99 351.78C232.628 343.659 208.932 333.98 184.624 323.077C176.781 319.573 145.964 303.998 145.964 303.553C145.964 303.108 151.694 303.275 167.102 304.221ZM683.747 322.632C696.485 335.593 703.939 347.608 706.386 359.234C708 366.799 707.11 373.084 703.438 380.037C699.711 387.102 689.254 396.057 680.187 399.896L677.461 401.064L671.065 394.722C655.211 379.036 628.845 359.901 604.148 346.106L599.197 343.381L599.531 338.152C599.753 335.259 600.031 332.756 600.143 332.534C600.254 332.311 603.703 331.977 607.763 331.755C633.073 330.42 655.712 326.081 671.51 319.517C674.791 318.127 677.628 317.014 677.795 317.014C677.962 316.959 680.688 319.517 683.747 322.632ZM40.4995 325.692C56.0745 340.877 76.9339 356.063 103.022 371.193L111.533 376.144L111.199 379.759C110.476 387.769 110.364 388.159 109.085 388.159C106.193 388.159 87.8364 389.883 81.8289 390.662C64.752 392.887 49.3995 396.836 39.0532 401.62L34.2139 403.845L30.3757 400.452C18.9726 390.217 8.68199 375.699 4.67699 364.24C2.89699 359.234 2.50761 349.611 3.84261 344.994C5.84511 337.985 10.907 331.143 17.9157 325.97C21.9207 322.966 30.5982 318.071 31.8776 318.071C32.267 318.071 36.1607 321.52 40.4995 325.692ZM303.216 323.689C331.696 329.697 364.515 338.096 394.33 347.052C408.626 351.335 432.322 358.956 435.437 360.346L437.885 361.347L436.494 366.576C432.378 382.429 427.816 398.505 427.427 398.95C426.926 399.451 423.422 398.839 403.286 394.5C393.162 392.331 383.761 390.161 369.577 386.657C360.455 384.487 343.656 379.926 331.196 376.422C308.612 369.969 273.29 358.733 272.122 357.621C271.9 357.454 272.567 353.894 273.68 349.777C277.573 334.647 281.3 321.131 281.745 320.241C282.301 319.184 281.133 319.017 303.216 323.689ZM466.365 321.631C497.793 327.027 529.221 330.476 561.761 332.033L575.056 332.645L579.005 334.592C585.569 337.929 596.249 343.77 596.583 344.326C597.25 345.327 592.8 373.084 589.574 388.159C586.96 400.396 583.733 413.802 583.066 414.97C582.676 415.86 581.731 415.971 576.057 415.971H569.493L563.708 412.856C546.798 403.901 522.045 392.164 501.52 383.375C487.836 377.479 451.29 363.406 443.28 360.902C442.056 360.513 440.888 360.068 440.666 359.846C440.443 359.679 441.5 354.617 442.946 348.665C444.448 342.713 446.562 333.924 447.675 329.196C448.787 324.468 449.844 320.241 450.011 319.796C450.289 318.85 451.123 318.961 466.365 321.631ZM597.862 335.982C597.139 342.602 597.862 342.435 589.018 337.707C584.735 335.426 581.008 333.312 580.73 333.034C580.396 332.756 583.9 332.534 589.185 332.534H598.251L597.862 335.982ZM612.936 353.616C635.743 367.411 654.544 381.428 668.84 395.334C673.29 399.673 675.014 401.676 674.625 402.065C673.735 402.955 663.277 406.348 655.768 408.239C642.64 411.466 627.01 413.746 610.433 414.803C597.473 415.693 586.125 416.138 585.569 415.804C585.291 415.637 586.125 411.299 587.405 406.126C591.187 390.996 595.136 370.748 597.361 355.062C597.806 351.669 598.363 348.109 598.53 347.107L598.808 345.272L601.978 347.052C603.703 348.053 608.653 351.001 612.936 353.616ZM284.193 363.962C329.527 378.814 378.255 391.719 421.308 400.285C426.315 401.231 426.593 401.397 426.426 402.677C426.148 405.402 415.356 440.836 414.466 441.948C414.133 442.393 413.632 442.449 413.02 442.171C411.518 441.392 391.271 434.661 378.755 430.767C359.565 424.816 335.034 418.029 317.846 413.857C299.823 409.463 294.761 408.351 276.516 404.568C268.618 402.955 261.998 401.453 261.831 401.286C261.331 400.841 262.666 394.667 268.117 372.027C270.286 362.905 271.121 359.79 271.288 359.79C271.343 359.79 277.184 361.681 284.193 363.962ZM452.848 366.409C476.766 375.087 499.295 384.209 521.711 394.333C530.556 398.338 556.31 411.076 560.927 413.746L563.986 415.526L553.696 415.192C522.824 414.191 467.421 407.572 436.605 401.175C434.491 400.786 432.155 400.396 431.488 400.396C430.82 400.396 430.153 400.174 429.93 399.896C429.708 399.451 433.268 385.544 438.941 364.907C439.386 363.35 439.943 362.015 440.221 362.015C440.499 362.015 446.173 364.017 452.848 366.409ZM3.00823 365.241C3.00823 366.966 8.96011 378.257 12.3532 383.041C16.4139 388.771 25.4807 399.006 29.2076 402.121C30.7095 403.344 31.9332 404.568 31.9332 404.735C31.9332 404.957 30.3757 406.126 28.4289 407.349C18.5832 413.635 11.9639 424.204 11.9082 433.604C11.9082 436.997 11.0739 437.554 10.6289 434.439C10.462 433.326 9.68324 429.377 8.90449 425.706C5.90074 411.41 3.95386 396.892 2.73011 379.815C1.72886 366.298 1.72886 364.24 2.45198 364.24C2.78574 364.24 3.00823 364.685 3.00823 365.241ZM708.778 377.701C707.165 400.062 704.273 419.197 699.545 438.499L697.542 446.843L697.153 441.281C696.93 438.221 696.318 434.272 695.873 432.436C693.76 424.76 689.031 415.916 682.635 407.683C681.077 405.681 679.575 403.734 679.297 403.344C678.908 402.844 680.076 402.009 683.413 400.341C690.088 397.003 694.149 394.111 698.877 389.327C703.327 384.877 706.609 379.426 707.777 374.642C708.166 373.196 708.611 372.027 708.834 372.027C709.056 372.027 709.001 374.586 708.778 377.701ZM123.603 382.596C128.554 385.211 132.615 387.436 132.615 387.602C132.615 387.769 128.109 387.936 122.602 388.047L112.589 388.27V386.323C112.589 382.151 113.313 377.534 113.98 377.701C114.314 377.812 118.653 379.982 123.603 382.596ZM150.915 396.28C179.673 409.908 213.048 423.536 243.475 434.049C247.758 435.551 251.318 437.053 251.485 437.442C251.596 437.832 250.873 442.949 249.761 448.901C247.925 459.136 243.809 483.889 243.03 489.507C242.641 492.622 242.808 492.567 236.021 491.399C231.516 490.62 219.89 488.84 211.88 487.727C207.986 487.171 194.191 485.669 178.783 484.167L170.718 483.389L161.261 479.217C147.077 472.987 135.841 467.758 123.158 461.361L111.755 455.632L111.421 451.516C110.476 440.391 111.199 393.888 112.311 390.495C112.478 389.994 115.538 389.827 124.883 389.827H137.231L150.915 396.28ZM164.599 390.94C180.953 392.052 198.252 393.777 216.608 396.28C230.014 398.06 257.938 402.621 258.438 403.122C258.716 403.344 258.271 406.348 257.493 409.852C256.77 413.357 255.323 420.254 254.378 425.149C253.432 430.044 252.431 434.272 252.208 434.494C251.43 435.384 213.438 421.311 189.908 411.521C170.439 403.4 143.183 390.94 143.183 390.106C143.183 389.772 150.693 390.05 164.599 390.94ZM110.198 391.607C109.308 395.279 108.584 429.21 109.085 441.002C109.419 447.9 109.474 453.685 109.308 453.907C108.584 454.686 80.4939 438.221 66.3651 428.709C53.0707 419.754 36.3832 406.849 36.3832 405.458C36.3832 404.346 49.2882 399.395 58.4107 397.059C71.427 393.666 93.232 390.662 105.581 390.439C110.42 390.384 110.476 390.384 110.198 391.607ZM444.337 404.512C487.947 412.189 513.868 415.081 560.927 417.529L568.993 417.974L574.722 421.256C577.837 423.036 580.396 424.704 580.396 424.982C580.396 425.872 576.446 438.555 572.553 450.125C569.16 460.304 560.482 482.999 557.033 490.731L555.81 493.457L542.626 493.123L529.499 492.734L513.646 484.724C492.23 473.877 478.546 467.591 457.186 458.802C445.616 454.074 422.977 445.397 419.25 444.284C416.58 443.506 416.469 443.116 417.637 439.334C420.752 429.154 427.538 406.571 428.039 404.568C428.428 403.011 428.985 402.065 429.485 402.065C429.986 402.065 436.605 403.177 444.337 404.512ZM272.678 405.736C301.325 411.466 337.537 420.366 362.068 427.708C392.439 436.831 413.187 443.839 413.41 445.063C413.688 446.454 404.065 474.989 403.23 475.267C401.506 475.935 357.896 466.089 330.361 458.747C299.211 450.459 254.433 436.608 254.433 435.217C254.433 434.606 255.824 427.652 259.495 409.686C260.496 404.679 260.886 403.734 261.776 403.734C262.332 403.734 267.227 404.624 272.678 405.736ZM680.354 408.017C690.978 421.867 695.039 431.379 695.039 442.393C695.095 451.46 692.202 458.135 685.193 465.199C679.575 470.984 669.062 477.214 658.771 480.941L655.601 482.109L651.985 477.826C647.368 472.375 636.076 461.306 629.624 455.966C618.666 446.899 601.366 434.828 588.795 427.374L583.121 424.037L583.455 421.867C584.067 417.64 583.511 417.862 596.36 417.417C627.232 416.416 654.377 412.077 672.177 405.236C674.18 404.457 676.071 403.845 676.405 403.789C676.738 403.789 678.518 405.681 680.354 408.017ZM38.8864 410.742C54.4057 423.814 77.9351 439.445 100.741 451.794C104.969 454.074 108.696 456.188 109.085 456.411C109.474 456.689 110.086 460.638 110.643 466.868C111.143 472.375 111.755 478.494 111.978 480.385C112.256 482.832 112.2 484.001 111.811 484.112C111.477 484.223 107.973 484.724 103.968 485.224C88.4482 487.227 72.317 491.732 64.8632 496.071C63.862 496.683 62.8051 497.184 62.5826 497.184C61.9707 497.184 53.1264 490.509 47.2301 485.558C44.5045 483.277 39.6095 478.716 36.3276 475.49C12.2976 451.46 7.29136 430.434 22.0876 415.248C24.9801 412.3 32.6007 406.515 33.602 406.515C33.7689 406.515 36.1607 408.406 38.8864 410.742ZM582.065 418.697C582.065 419.309 581.842 420.421 581.508 421.2L581.008 422.591L577.336 420.532C575.39 419.42 573.721 418.307 573.721 418.029C573.721 417.807 575.612 417.64 577.893 417.64C581.62 417.64 582.065 417.751 582.065 418.697ZM592.3 431.824C611.156 443.617 627.399 455.91 639.025 467.146C646.59 474.433 653.431 482.221 652.82 482.832C652.208 483.444 638.023 487.004 631.293 488.228C614.716 491.232 601.533 492.511 577.503 493.346C565.655 493.791 559.036 493.846 558.646 493.457C558.313 493.123 559.314 490.119 561.539 484.891C568.047 469.427 577.058 443.951 581.23 429.154C581.731 427.43 582.343 425.984 582.565 425.984C582.788 425.984 587.182 428.598 592.3 431.824ZM262.221 440.446C274.959 444.729 301.993 452.962 312.84 455.91C315.12 456.577 320.738 458.079 325.244 459.359C335.59 462.196 359.565 468.203 369.855 470.539C382.148 473.265 393.996 475.824 398.224 476.602C400.393 477.047 402.285 477.492 402.507 477.659C402.952 477.993 398.335 491.176 390.826 511.09C384.54 527.666 383.65 529.78 382.816 529.557C382.426 529.446 375.473 527.166 367.352 524.44C337.704 514.539 313.507 507.697 283.915 500.855C272.845 498.352 252.876 494.236 248.259 493.568C246.868 493.346 245.422 493.012 245.088 492.789C244.365 492.344 247.146 473.821 252.264 445.452C253.766 437.276 253.71 437.498 254.878 437.943C255.379 438.11 258.716 439.278 262.221 440.446ZM426.203 448.846C444.949 455.687 470.87 466.367 487.28 473.988C497.848 478.883 520.321 490.175 521.711 491.287C522.768 492.122 522.601 492.177 519.486 491.899C517.651 491.732 512.923 491.343 508.918 491.065C500.296 490.342 483.608 488.562 474.708 487.394C471.204 486.949 466.42 486.337 464.14 486.059C461.859 485.725 459.078 485.336 458.021 485.169C456.964 485.057 454.572 484.668 452.736 484.39C432.378 481.219 406.79 476.714 406.178 476.102C405.956 475.879 407.791 469.594 410.239 462.14C415.523 446.064 415.746 445.452 416.358 445.452C416.636 445.452 421.086 447.01 426.203 448.846ZM17.3595 454.464C24.257 466.924 36.1051 479.606 53.5714 493.179L60.4689 498.519L58.2995 500.187C49.6776 506.862 45.5614 515.874 47.0076 524.941C47.2857 526.887 47.4526 528.556 47.2857 528.723C46.6739 529.335 35.7157 507.196 29.8751 493.624C24.3682 480.719 13.9107 450.459 14.9676 450.459C15.0789 450.459 16.1357 452.294 17.3595 454.464ZM693.036 462.14C689.643 472.653 685.193 484.835 681.911 492.734C678.908 499.909 669.118 520.546 668.728 520.546C668.617 520.546 668.561 517.987 668.506 514.817C668.506 506.028 665.613 497.462 659.717 488.339C658.326 486.114 657.158 484.167 657.158 483.945C657.158 483.722 658.827 482.944 660.941 482.221C675.181 477.103 688.642 466.979 693.259 457.801C695.261 453.796 695.206 455.521 693.036 462.14ZM126.885 465.366C134.784 469.26 146.243 474.656 152.361 477.381C158.48 480.107 163.709 482.499 163.931 482.721C164.21 482.944 156.533 483.111 146.966 483.055C137.398 483.055 126.162 483.222 121.99 483.444L114.425 483.889L113.758 478.716C112.256 466.312 111.644 458.246 112.256 458.246C112.367 458.246 118.986 461.417 126.885 465.366ZM417.971 480.441C452.959 487.004 487.28 491.51 519.876 493.791C525.049 494.18 528.108 494.681 529.332 495.292C533.059 497.239 548.634 506.64 548.968 507.196C549.746 508.476 534.338 536.844 523.269 554.589L517.428 563.934H512.645C502.465 563.934 457.409 559.929 452.013 558.538C451.235 558.371 447.563 556.758 443.892 555.034C428.873 547.914 400.171 535.899 388.656 531.894C387.043 531.337 385.708 530.559 385.708 530.225C385.708 529.891 386.376 528.056 387.155 526.053C389.268 520.88 399.615 493.067 402.396 485.002L404.788 478.16L406.79 478.438C407.903 478.605 412.909 479.495 417.971 480.441ZM658.104 489.563C664 499.019 666.003 504.526 666.448 512.481C666.837 519.211 666.114 523.105 663.555 528.222C657.548 540.182 641.416 550.25 618.944 556.146C615.328 557.092 611.935 558.037 611.435 558.149C610.767 558.371 609.432 556.981 606.54 553.142C596.583 539.848 579.283 524.551 558.98 511.09C555.643 508.865 552.695 506.862 552.416 506.64C552.194 506.473 553.084 503.914 554.475 500.966L556.922 495.682L573.498 495.348C599.642 494.792 618.165 492.956 636.855 489.118C641.583 488.117 650.706 485.781 652.82 485.002C653.543 484.724 654.377 484.612 654.655 484.779C654.989 484.891 656.546 487.004 658.104 489.563ZM167.38 485.447C171.163 485.836 174.055 486.782 186.849 491.899C195.137 495.181 203.147 498.352 204.649 498.852C206.206 499.409 209.544 500.688 212.158 501.634C214.773 502.579 221.837 505.138 227.9 507.252C233.963 509.366 239.192 511.201 239.47 511.424C239.804 511.591 239.915 512.647 239.748 513.816C237.968 524.774 234.408 564.601 234.408 573.446C234.408 575.782 234.241 577.784 234.075 578.007C233.407 578.674 200.978 567.104 180.452 558.927C159.982 550.751 126.162 535.565 124.493 533.785C122.713 531.838 113.869 487.394 115.037 486.226C115.259 485.947 117.262 485.614 119.431 485.447C125.55 484.946 162.374 484.946 167.38 485.447ZM113.034 487.727C113.869 495.626 116.984 512.258 119.654 523.494C120.711 528.056 121.489 531.894 121.323 532.061C120.766 532.617 100.519 521.603 86.6126 513.259C77.9351 508.031 64.752 499.297 64.752 498.741C64.752 498.018 70.9264 495.181 76.9895 493.123C83.887 490.787 93.0651 488.673 102.633 487.227C111.533 485.836 112.812 485.892 113.034 487.727ZM186.571 486.893C201.311 488.061 240.972 493.512 241.973 494.569C242.251 494.792 240.75 507.307 240.249 508.698C239.915 509.699 217.999 502.079 191.744 491.788C180.508 487.394 176.725 485.447 180.897 486.281C181.731 486.448 184.29 486.726 186.571 486.893ZM258.438 497.406C287.141 503.136 312.339 509.421 340.374 517.821C354.113 521.937 381.37 531.004 382.037 531.727C382.593 532.227 377.643 545.355 376.753 545.911C376.03 546.301 349.941 540.516 327.58 534.953C314.731 531.782 311.449 530.892 290.311 524.885C269.285 518.933 243.642 510.923 242.585 509.977C242.196 509.644 243.531 497.517 244.143 495.626C244.476 494.681 244.755 494.681 258.438 497.406ZM551.304 495.459L554.753 495.793L552.583 500.466C551.137 503.469 550.136 504.971 549.635 504.804C549.246 504.693 545.352 502.412 540.902 499.742L532.892 494.959L540.346 495.014C544.462 495.07 549.413 495.237 551.304 495.459ZM70.7039 505.472C83.6089 514.094 95.3457 520.936 116.149 532.061C119.487 533.841 122.435 535.676 122.658 536.121C122.88 536.566 124.104 540.46 125.383 544.743C131.279 564.712 139.679 585.294 148.468 601.258C150.526 604.929 152.028 608.1 151.916 608.267C151.749 608.378 146.799 606.097 140.847 603.205C68.8126 567.661 34.7701 530.114 53.8495 507.252C55.852 504.86 61.3589 500.021 62.082 499.965C62.3045 499.965 66.1982 502.412 70.7039 505.472ZM558.035 512.87C577.503 525.831 593.245 539.514 603.091 551.863C606.706 556.424 607.93 558.316 607.485 558.705C606.762 559.428 590.909 561.764 577.336 563.155C568.381 564.045 519.765 564.991 519.765 564.212C519.765 563.989 521.878 560.541 524.437 556.48C530.834 546.467 538.51 532.895 545.296 519.823C548.467 513.816 551.248 508.865 551.526 508.865C551.805 508.865 554.753 510.645 558.035 512.87ZM255.212 516.319C292.314 528.278 337.871 540.237 372.525 547.246C374.528 547.636 375.696 548.136 375.696 548.637C375.696 550.917 349.33 607.544 347.828 608.489C347.105 608.934 345.436 608.601 332.308 605.652C307.055 599.923 271.788 590.411 247.48 582.735L236.355 579.175L236.466 572.556C236.689 562.154 238.691 537.957 240.805 520.268C241.25 516.597 241.64 513.315 241.64 512.926C241.64 512.536 241.806 512.202 241.973 512.202C242.196 512.202 248.148 514.038 255.212 516.319ZM395.331 536.455C416.191 544.465 444.504 556.814 442.724 557.203C442.168 557.314 439.943 557.092 437.773 556.758C435.604 556.48 430.32 555.646 426.036 555.034C411.296 552.809 379.756 547.079 379.2 546.523C379.033 546.301 383.65 534.452 384.429 533.173C384.818 532.506 385.43 532.672 395.331 536.455ZM148.189 547.357C170.439 557.37 196.138 567.438 221.893 576.338L233.574 580.343L233.63 599.534C233.685 616.666 234.408 632.686 235.354 638.582C235.521 639.862 235.465 640.696 235.076 640.696C234.241 640.696 212.937 633.409 201.812 629.293C189.463 624.676 176.836 619.614 164.988 614.386L155.866 610.436L153.418 606.209C147.021 595.362 136.619 572.444 131.947 558.927C128.943 550.139 125.383 538.68 125.383 537.734C125.383 536.9 126.607 537.345 132.503 540.126C136.397 541.962 143.461 545.188 148.189 547.357ZM655.99 542.907C644.754 560.707 630.959 579.008 618.11 593.026C613.548 598.032 612.269 598.866 614.327 595.584C616.385 592.191 617.665 586.962 617.665 581.845C617.665 576.004 616.552 571.221 613.715 565.102C612.491 562.543 611.657 560.318 611.768 560.207C611.88 560.096 614.772 559.261 618.221 558.371C632.572 554.589 645.7 548.804 653.265 542.907C655.545 541.072 657.548 539.681 657.659 539.792C657.77 539.904 657.047 541.294 655.99 542.907ZM384.596 549.694C399.225 552.642 420.196 556.146 439.331 558.927L450.956 560.596L459.968 565.269C464.918 567.883 472.372 571.944 476.433 574.28C484.776 579.064 499.183 588.353 499.183 588.909C499.183 590.022 483.942 608.044 473.985 618.669L467.255 625.789L461.692 625.455C442.001 624.12 417.136 621.227 392.383 617.278C377.921 614.997 350.831 609.88 350.275 609.324C350.164 609.212 352.778 603.539 356.171 596.697C363.013 582.568 369.577 568.272 374.305 557.259C377.865 548.859 378.255 548.247 379.534 548.581C380.035 548.748 382.315 549.249 384.596 549.694ZM78.6582 567.549C94.5114 580.176 115.093 592.636 141.681 605.708L154.308 611.882L160.093 620.616C177.893 647.427 198.92 668.064 222.616 682.026C225.731 683.861 228.178 685.474 228.067 685.586C227.455 686.253 206.151 676.741 192.968 669.899C142.516 643.867 99.3507 606.153 66.087 558.927C64.2514 556.313 62.527 553.81 62.2489 553.365C61.9707 552.92 64.3626 554.978 67.5332 557.926C70.7595 560.874 75.7657 565.213 78.6582 567.549ZM610.99 563.934C620.78 583.291 615.94 598.588 596.527 609.769C583.789 617.056 568.548 621.283 541.736 624.843L539.456 625.177L536.174 620.337C529.888 611.104 516.205 598.143 502.576 588.631C502.521 588.52 505.246 584.515 508.695 579.676C512.144 574.836 515.704 569.886 516.538 568.662L518.096 566.492L540.513 566.381C567.713 566.214 586.626 564.824 602.256 561.709C609.543 560.262 609.098 560.151 610.99 563.934ZM482.774 563.822C489.838 564.49 498.182 565.102 501.408 565.324C512.978 565.936 515.426 566.27 515.092 567.049C514.48 568.606 501.241 586.74 500.685 586.74C500.351 586.74 497.07 584.793 493.398 582.346C485.333 577.117 474.096 570.553 464.807 565.602C461.08 563.6 458.021 561.82 458.021 561.653C458.021 561.486 460.691 561.653 464.028 562.042C467.31 562.432 475.765 563.211 482.774 563.822ZM245.533 584.126C268.729 591.412 286.863 596.53 310.058 602.204C330.751 607.321 334.422 608.211 340.207 609.324C346.938 610.659 346.826 610.547 344.713 614.664C338.761 626.178 327.413 644.812 319.57 656.049C315.621 661.667 315.176 662.112 313.674 661.945C310.114 661.556 285.361 655.381 266.115 650.097C262.443 649.096 243.586 643.477 239.86 642.309C238.747 641.92 237.69 641.308 237.523 640.863C237.356 640.418 236.8 634.633 236.355 628.014C235.521 616.054 235.187 582.234 235.966 581.511C236.133 581.289 236.578 581.233 236.856 581.344C237.19 581.511 241.083 582.735 245.533 584.126ZM508.751 595.64C521.322 605.319 538.232 623.675 535.896 625.121C535.506 625.344 532.28 625.789 528.72 626.067C521.044 626.623 471.037 626.623 470.481 626.122C470.314 625.9 473.095 622.507 476.766 618.613C484.22 610.603 491.507 602.148 497.181 594.917C499.295 592.247 501.241 590.133 501.464 590.189C501.686 590.3 504.968 592.747 508.751 595.64ZM603.202 608.322C603.202 609.602 581.008 628.904 569.827 637.303C559.815 644.868 543.739 655.826 538.733 658.441C537.231 659.275 537.342 658.941 539.567 655.937C540.29 655.047 541.57 652.767 542.348 650.931C543.683 648.039 543.906 646.926 543.906 642.087C543.906 636.747 543.127 633.298 540.68 627.791C540.346 627.012 540.735 626.846 543.516 626.512C556.533 625.066 572.886 621.561 582.788 618.112C588.684 616.054 597.695 611.66 600.977 609.324C603.202 607.711 603.202 607.711 603.202 608.322ZM362.624 613.941C395.331 620.226 426.76 624.621 455.685 626.846C460.635 627.235 464.696 627.736 464.696 627.958C464.696 629.237 441.945 648.873 431.599 656.549C421.475 664.059 405.177 674.572 401.673 675.907C400.004 676.519 376.419 673.626 355.393 670.122C342.655 668.064 319.292 663.502 318.346 662.946C317.846 662.612 319.181 660.221 323.241 654.213C329.916 644.367 336.591 633.409 342.877 622.062C348.996 610.992 348.885 611.104 349.997 611.437C350.498 611.604 356.227 612.717 362.624 613.941ZM164.933 616.555C180.063 623.23 203.87 632.297 225.508 639.695L235.799 643.199L236.244 646.537C238.636 665.171 244.476 682.471 251.151 690.703C252.709 692.594 253.766 694.096 253.543 694.096C252.486 694.096 242.975 690.314 237.356 687.699C208.932 674.294 182.399 650.653 163.041 621.506C157.98 613.941 158.035 613.996 158.647 613.996C158.925 613.996 161.762 615.164 164.933 616.555ZM539.122 629.404C545.741 642.587 541.347 655.882 527.663 664.003C511.198 673.793 485.221 678.521 447.73 678.521C433.88 678.521 406.512 677.242 405.789 676.574C405.455 676.185 405.233 676.352 412.13 672.124C429.04 661.722 444.893 649.485 461.136 634.244L467.922 627.958L484.665 628.403C499.962 628.848 530.667 628.347 531.335 627.624C531.501 627.457 533.059 627.346 534.839 627.346C538.065 627.346 538.121 627.402 539.122 629.404ZM246.034 646.203C252.264 648.15 265.725 652.044 276.961 655.103C280.466 656.049 295.93 659.887 308.278 662.835C310.837 663.447 313.062 664.114 313.229 664.281C313.896 664.949 300.936 679.801 295.485 684.696C282.357 696.266 272.678 699.881 262.666 696.877C252.041 693.707 243.086 676.852 239.136 652.656C238.691 649.596 238.135 646.426 237.968 645.536C237.746 644.59 237.913 644.034 238.358 644.034C238.691 644.034 242.14 645.035 246.034 646.203ZM329.861 667.396C352.389 671.846 373.693 675.239 389.88 676.908C393.551 677.297 396.778 677.798 397.056 678.021C397.89 678.744 379.478 687.421 369.021 691.204C338.65 702.217 308.612 705.555 280.744 700.994C277.573 700.437 275.015 699.881 275.015 699.659C275.015 699.492 276.35 698.88 277.963 698.379C287.363 695.376 301.325 683.472 312.728 668.62C314.453 666.451 315.899 664.615 315.955 664.615C316.01 664.615 322.24 665.839 329.861 667.396ZM510.03 674.016C509.696 674.294 504.69 676.686 498.905 679.244C453.571 699.325 405.066 709.671 355.949 709.671C344.435 709.671 326.523 708.67 316.455 707.502C299.267 705.444 297.042 704.665 308.668 704.665C335.368 704.609 363.291 697.378 392.328 683.082L402.006 678.299L410.128 678.966C414.578 679.3 424.924 679.912 433.101 680.301C459.856 681.469 489.06 679.244 505.58 674.683C510.253 673.404 510.698 673.348 510.03 674.016Z" fill="#2BAC30"/>
</svg>
