<svg width="93" height="22" viewBox="0 0 93 22" fill="none" xmlns="http://www.w3.org/2000/svg">
<path d="M29.9211 2.64C29.9211 3.28 29.7611 3.84 29.3611 4.24C28.8811 4.72 28.3211 4.96 27.6011 4.96C26.8811 4.96 26.3211 4.72 25.8411 4.24C25.3611 3.76 25.1211 3.2 25.1211 2.48C25.1211 1.76 25.3611 1.2 25.8411 0.72C26.3211 0.24 26.8811 0 27.6011 0C27.9211 0 28.2411 0.0799998 28.5611 0.24C28.8811 0.4 29.1211 0.56 29.2811 0.8L28.8811 1.2C28.5611 0.8 28.1611 0.64 27.6011 0.64C27.1211 0.64 26.6411 0.8 26.3211 1.2C25.9211 1.52 25.7611 2 25.7611 2.56C25.7611 3.12 25.9211 3.6 26.3211 3.92C26.7211 4.24 27.1211 4.48 27.6011 4.48C28.1611 4.48 28.5611 4.32 28.9611 3.92C29.2011 3.68 29.3611 3.36 29.3611 2.96H27.6011V2.32H29.9211V2.64ZM33.6011 0.64H31.4411V2.16H33.4411V2.72H31.4411V4.24H33.6011V4.88H30.8011V0.0799999H33.6011V0.64ZM36.2411 4.88H35.6011V0.64H34.2411V0.0799999H37.6011V0.64H36.2411V4.88ZM39.9211 4.88V0.0799999H40.5611V4.88H39.9211ZM43.2811 4.88H42.6411V0.64H41.2811V0.0799999H44.5611V0.64H43.2011V4.88H43.2811ZM50.8811 4.24C50.4011 4.72 49.8411 4.96 49.1211 4.96C48.4011 4.96 47.8411 4.72 47.3611 4.24C46.8811 3.76 46.6411 3.2 46.6411 2.48C46.6411 1.76 46.8811 1.2 47.3611 0.72C47.8411 0.24 48.4011 0 49.1211 0C49.8411 0 50.4011 0.24 50.8811 0.72C51.3611 1.2 51.6011 1.76 51.6011 2.48C51.6011 3.2 51.3611 3.76 50.8811 4.24ZM47.8411 3.84C48.1611 4.16 48.6411 4.4 49.1211 4.4C49.6011 4.4 50.0811 4.24 50.4011 3.84C50.7211 3.52 50.9611 3.04 50.9611 2.48C50.9611 1.92 50.8011 1.44 50.4011 1.12C50.0811 0.8 49.6011 0.56 49.1211 0.56C48.6411 0.56 48.1611 0.72 47.8411 1.12C47.5211 1.44 47.2811 1.92 47.2811 2.48C47.2811 3.04 47.4411 3.52 47.8411 3.84ZM52.4811 4.88V0.0799999H53.2011L55.5211 3.84V0.0799999H56.1611V4.88H55.5211L53.0411 0.96V4.88H52.4811Z" fill="white"/>
<path d="M46.4809 11.9202C44.5609 11.9202 43.0409 13.3602 43.0409 15.3602C43.0409 17.2802 44.5609 18.8002 46.4809 18.8002C48.4009 18.8002 49.9209 17.3602 49.9209 15.3602C49.9209 13.2802 48.4009 11.9202 46.4809 11.9202ZM46.4809 17.3602C45.4409 17.3602 44.5609 16.4802 44.5609 15.2802C44.5609 14.0802 45.4409 13.2002 46.4809 13.2002C47.5209 13.2002 48.4009 14.0002 48.4009 15.2802C48.4009 16.4802 47.5209 17.3602 46.4809 17.3602ZM39.0409 11.9202C37.1209 11.9202 35.6009 13.3602 35.6009 15.3602C35.6009 17.2802 37.1209 18.8002 39.0409 18.8002C40.9609 18.8002 42.4809 17.3602 42.4809 15.3602C42.4809 13.2802 40.9609 11.9202 39.0409 11.9202ZM39.0409 17.3602C38.0009 17.3602 37.1209 16.4802 37.1209 15.2802C37.1209 14.0802 38.0009 13.2002 39.0409 13.2002C40.0809 13.2002 40.9609 14.0002 40.9609 15.2802C40.9609 16.4802 40.0809 17.3602 39.0409 17.3602ZM30.1609 12.9602V14.4002H33.6009C33.5209 15.2002 33.2009 15.8402 32.8009 16.2402C32.3209 16.7202 31.5209 17.2802 30.1609 17.2802C28.0009 17.2802 26.4009 15.6002 26.4009 13.4402C26.4009 11.2802 28.0809 9.60016 30.1609 9.60016C31.2809 9.60016 32.1609 10.0802 32.8009 10.6402L33.8409 9.60016C32.9609 8.80016 31.8409 8.16016 30.2409 8.16016C27.3609 8.16016 24.8809 10.5602 24.8809 13.4402C24.8809 16.3202 27.3609 18.7202 30.2409 18.7202C31.8409 18.7202 32.9609 18.2402 33.9209 17.2002C34.8809 16.2402 35.2009 14.8802 35.2009 13.8402C35.2009 13.5202 35.2009 13.2002 35.1209 12.9602H30.1609ZM66.4809 14.0802C66.1609 13.2802 65.3609 11.9202 63.6009 11.9202C61.8409 11.9202 60.4009 13.2802 60.4009 15.3602C60.4009 17.2802 61.8409 18.8002 63.7609 18.8002C65.2809 18.8002 66.2409 17.8402 66.5609 17.2802L65.4409 16.4802C65.0409 17.0402 64.5609 17.4402 63.7609 17.4402C62.9609 17.4402 62.4809 17.1202 62.0809 16.4002L66.6409 14.4802L66.4809 14.0802ZM61.8409 15.2002C61.8409 13.9202 62.8809 13.2002 63.6009 13.2002C64.1609 13.2002 64.7209 13.5202 64.8809 13.9202L61.8409 15.2002ZM58.0809 18.4802H59.6009V8.48016H58.0809V18.4802ZM55.6809 12.6402C55.2809 12.2402 54.6409 11.8402 53.8409 11.8402C52.1609 11.8402 50.5609 13.3602 50.5609 15.2802C50.5609 17.2002 52.0809 18.6402 53.8409 18.6402C54.6409 18.6402 55.2809 18.2402 55.6009 17.8402H55.6809V18.3202C55.6809 19.6002 54.9609 20.3202 53.8409 20.3202C52.9609 20.3202 52.3209 19.6802 52.1609 19.1202L50.8809 19.6802C51.2809 20.5602 52.2409 21.6802 53.9209 21.6802C55.6809 21.6802 57.1209 20.6402 57.1209 18.1602V12.0802H55.6809V12.6402ZM53.9209 17.3602C52.8809 17.3602 52.0009 16.4802 52.0009 15.2802C52.0009 14.0802 52.8809 13.2002 53.9209 13.2002C54.9609 13.2002 55.7609 14.0802 55.7609 15.2802C55.7609 16.4802 54.9609 17.3602 53.9209 17.3602ZM73.4409 8.48016H69.8409V18.4802H71.3609V14.7202H73.4409C75.1209 14.7202 76.7209 13.5202 76.7209 11.6002C76.7209 9.68016 75.1209 8.48016 73.4409 8.48016ZM73.5209 13.2802H71.3609V9.84016H73.5209C74.6409 9.84016 75.2809 10.8002 75.2809 11.5202C75.2009 12.4002 74.5609 13.2802 73.5209 13.2802ZM82.7209 11.8402C81.6009 11.8402 80.4809 12.3202 80.0809 13.3602L81.4409 13.9202C81.7609 13.3602 82.2409 13.2002 82.8009 13.2002C83.6009 13.2002 84.3209 13.6802 84.4009 14.4802V14.5602C84.1609 14.4002 83.5209 14.1602 82.8809 14.1602C81.4409 14.1602 80.0009 14.9602 80.0009 16.4002C80.0009 17.7602 81.2009 18.6402 82.4809 18.6402C83.5209 18.6402 84.0009 18.1602 84.4009 17.6802H84.4809V18.4802H85.9209V14.6402C85.7609 12.8802 84.4009 11.8402 82.7209 11.8402ZM82.5609 17.3602C82.0809 17.3602 81.3609 17.1202 81.3609 16.4802C81.3609 15.6802 82.2409 15.4402 82.9609 15.4402C83.6009 15.4402 83.9209 15.6002 84.3209 15.7602C84.1609 16.7202 83.3609 17.3602 82.5609 17.3602ZM90.9609 12.0802L89.2809 16.4002H89.2009L87.4409 12.0802H85.8409L88.4809 18.1602L86.9609 21.5202H88.4809L92.5609 12.0802H90.9609ZM77.5209 18.4802H79.0409V8.48016H77.5209V18.4802Z" fill="white"/>
<path d="M0.32 0.47998C0.0799997 0.71998 0 1.11998 0 1.59998V19.28C0 19.76 0.16 20.16 0.4 20.4L0.48 20.48L10.4 10.56V10.4L0.32 0.47998Z" fill="url(#paint0_linear_2025_4443)"/>
<path d="M13.6003 13.9201L10.3203 10.6401V10.4001L13.6003 7.12012L13.6803 7.20012L17.6003 9.44012C18.7203 10.0801 18.7203 11.1201 17.6003 11.7601L13.6003 13.9201Z" fill="url(#paint1_linear_2025_4443)"/>
<path d="M13.6803 13.84L10.3203 10.48L0.320312 20.48C0.720313 20.88 1.28031 20.88 2.00031 20.56L13.6803 13.84Z" fill="url(#paint2_linear_2025_4443)"/>
<path d="M13.6803 7.11978L2.00031 0.479777C1.28031 0.0797772 0.720313 0.159777 0.320312 0.559777L10.3203 10.4798L13.6803 7.11978Z" fill="url(#paint3_linear_2025_4443)"/>
<path opacity="0.2" d="M13.6003 13.7598L2.00031 20.3198C1.36031 20.7198 0.800313 20.6398 0.400313 20.3198L0.320312 20.3998L0.400313 20.4798C0.800313 20.7998 1.36031 20.8798 2.00031 20.4798L13.6003 13.7598Z" fill="black"/>
<path opacity="0.12" d="M0.32 20.32C0.0799997 20.08 0 19.68 0 19.2V19.28C0 19.76 0.16 20.16 0.4 20.4V20.32H0.32ZM17.6 11.52L13.6 13.76L13.68 13.84L17.6 11.6C18.16 11.28 18.4 10.88 18.4 10.48C18.4 10.88 18.08 11.2 17.6 11.52Z" fill="black"/>
<path opacity="0.25" d="M2 0.560001L17.6 9.44C18.08 9.76 18.4 10.08 18.4 10.48C18.4 10.08 18.16 9.68 17.6 9.36L2 0.480001C0.88 -0.159999 0 0.320001 0 1.6V1.68C0 0.480001 0.88 -0.0799986 2 0.560001Z" fill="white"/>
<defs>
<linearGradient id="paint0_linear_2025_4443" x1="9.44" y1="1.44798" x2="-3.9864" y2="14.8736" gradientUnits="userSpaceOnUse">
<stop stop-color="#00A0FF"/>
<stop offset="0.007" stop-color="#00A1FF"/>
<stop offset="0.26" stop-color="#00BEFF"/>
<stop offset="0.512" stop-color="#00D2FF"/>
<stop offset="0.76" stop-color="#00DFFF"/>
<stop offset="1" stop-color="#00E3FF"/>
</linearGradient>
<linearGradient id="paint1_linear_2025_4443" x1="19.0675" y1="10.4809" x2="-0.290087" y2="10.4809" gradientUnits="userSpaceOnUse">
<stop stop-color="#FFE000"/>
<stop offset="0.409" stop-color="#FFBD00"/>
<stop offset="0.775" stop-color="#FFA500"/>
<stop offset="1" stop-color="#FF9C00"/>
</linearGradient>
<linearGradient id="paint2_linear_2025_4443" x1="11.8619" y1="12.3168" x2="-6.34449" y2="30.5232" gradientUnits="userSpaceOnUse">
<stop stop-color="#FF3A44"/>
<stop offset="1" stop-color="#C31162"/>
</linearGradient>
<linearGradient id="paint3_linear_2025_4443" x1="-2.16209" y1="-5.37942" x2="5.96831" y2="2.75098" gradientUnits="userSpaceOnUse">
<stop stop-color="#32A071"/>
<stop offset="0.069" stop-color="#2DA771"/>
<stop offset="0.476" stop-color="#15CF74"/>
<stop offset="0.801" stop-color="#06E775"/>
<stop offset="1" stop-color="#00F076"/>
</linearGradient>
</defs>
</svg>
