<svg width="189" height="25" viewBox="0 0 189 25" fill="none" xmlns="http://www.w3.org/2000/svg">
<path fill-rule="evenodd" clip-rule="evenodd" d="M37.9907 12.3603H43.6145C43.2399 10.9315 42.2139 10.3523 40.9644 10.3523C39.5904 10.3523 38.4893 11.1012 37.9907 12.3603ZM46.9139 14.8036H37.7912C38.1657 16.6438 39.7146 17.3219 41.0641 17.3219C42.7637 17.3219 43.4903 16.3051 43.4903 16.3051H46.639C45.6886 18.7247 43.415 20.0549 40.9645 20.0549C37.5898 20.0549 34.6406 17.5623 34.6406 13.7887C34.6406 10.0371 37.5652 7.71387 40.8645 7.71387C44.0643 7.71387 47.3148 9.86737 46.9139 14.8036Z" fill="white"/>
<path fill-rule="evenodd" clip-rule="evenodd" d="M77.9073 13.8852C77.9073 11.9974 76.7574 10.5217 74.8582 10.5217C72.9574 10.5217 71.6831 11.9974 71.6831 13.8852C71.6831 15.7729 72.9574 17.2487 74.8582 17.2487C76.7574 17.2487 77.9073 15.7729 77.9073 13.8852ZM68.4082 13.9087C68.4082 10.0371 71.508 7.71387 74.8581 7.71387C78.2328 7.71387 81.182 10.0606 81.182 13.8595C81.182 17.7079 78.131 20.0547 74.7566 20.0547C71.3573 20.0547 68.4082 17.7079 68.4082 13.9087Z" fill="white"/>
<path fill-rule="evenodd" clip-rule="evenodd" d="M94.5612 13.3771V19.9347H91.2352V14.1021C91.2352 13.6904 91.5368 10.6419 89.1366 10.522C87.9603 10.449 85.8615 11.0773 85.8615 14.248V19.9347H82.5625V7.8341H85.591L85.6009 9.5139C85.6009 9.5139 86.9665 7.71387 89.5134 7.71387C92.7376 7.71387 94.5612 10.0371 94.5612 13.3771Z" fill="white"/>
<path fill-rule="evenodd" clip-rule="evenodd" d="M106.72 10.2794C105.67 10.2794 105.22 10.7877 105.22 11.2962C105.22 12.118 106.345 12.3603 107.095 12.5061C109.321 12.9651 111.571 13.6194 111.571 16.1827C111.571 18.6755 109.445 20.0549 106.871 20.0549C103.997 20.0549 101.772 18.3622 101.621 15.7967H104.695C104.77 16.5218 105.271 17.4656 106.796 17.4656C108.07 17.4656 108.371 16.8135 108.371 16.3051C108.371 15.4085 107.495 15.1424 106.645 14.9492C105.171 14.634 101.996 14.0548 101.996 11.2962C101.996 8.92382 104.347 7.71387 106.771 7.71387C109.569 7.71387 111.42 9.35929 111.571 11.3926H108.494C108.395 10.9809 107.997 10.2794 106.72 10.2794Z" fill="white"/>
<path fill-rule="evenodd" clip-rule="evenodd" d="M121.674 13.8852C121.674 11.8754 120.548 10.691 118.925 10.691C117.4 10.691 115.873 11.7551 115.873 13.8852C115.873 16.0134 117.4 17.0793 118.925 17.0793C120.548 17.0793 121.674 15.8931 121.674 13.8852ZM124.799 7.8341V24.7739H121.674V18.7483C120.875 19.6192 119.749 20.0547 118.448 20.0547C115.276 20.0547 112.625 17.5386 112.625 13.8852C112.625 10.23 115.276 7.71387 118.448 7.71387C120.943 7.71387 121.877 9.33448 121.877 9.33448L121.871 7.8341H124.799Z" fill="white"/>
<path fill-rule="evenodd" clip-rule="evenodd" d="M142.663 12.3603H148.287C147.912 10.9315 146.886 10.3523 145.637 10.3523C144.263 10.3523 143.161 11.1012 142.663 12.3603ZM151.586 14.8036H142.462C142.838 16.6438 144.387 17.3219 145.736 17.3219C147.436 17.3219 148.163 16.3051 148.163 16.3051H151.311C150.361 18.7247 148.087 20.0549 145.637 20.0549C142.262 20.0549 139.312 17.5623 139.312 13.7887C139.312 10.0371 142.238 7.71387 145.537 7.71387C148.736 7.71387 151.987 9.86737 151.586 14.8036Z" fill="white"/>
<path fill-rule="evenodd" clip-rule="evenodd" d="M155.942 12.3603H161.565C161.191 10.9315 160.165 10.3523 158.915 10.3523C157.542 10.3523 156.441 11.1012 155.942 12.3603ZM164.865 14.8036H155.743C156.117 16.6438 157.666 17.3219 159.015 17.3219C160.715 17.3219 161.441 16.3051 161.441 16.3051H164.591C163.639 18.7247 161.366 20.0549 158.915 20.0549C155.541 20.0549 152.592 17.5623 152.592 13.7887C152.592 10.0371 155.516 7.71387 158.816 7.71387C162.016 7.71387 165.266 9.86737 164.865 14.8036Z" fill="white"/>
<path fill-rule="evenodd" clip-rule="evenodd" d="M175.994 17.225V19.9343H165.371V18.3365L171.396 10.5453H165.622V7.83398H175.745V9.4318L169.72 17.225H175.994Z" fill="white"/>
<path fill-rule="evenodd" clip-rule="evenodd" d="M189 7.83398V18.4823V18.7246C189 21.9917 187.273 24.8962 183 24.8962C179 24.8962 176.826 22.3542 176.826 20.443H179.951C179.951 20.443 180.425 22.0646 182.9 22.0646C185 22.0646 185.875 20.9019 185.875 19.2092V18.7009C185.324 19.3059 184.276 20.0548 182.401 20.0548C179.126 20.0548 177.077 17.7572 177.077 14.3935L177.05 7.83398H180.3V13.6665C180.3 15.3117 180.902 17.2489 182.975 17.2489C184.05 17.2489 185.825 16.7404 185.825 13.5207V7.83398H189Z" fill="white"/>
<path fill-rule="evenodd" clip-rule="evenodd" d="M32.2633 16.3015C32.2633 17.0561 32.5605 17.3674 33.1122 17.3674C33.5008 17.3674 33.7533 17.3223 34.1215 17.2118L34.3273 19.6985C33.6392 19.9192 32.9738 20.0532 32.1249 20.0532C30.1771 20.0532 28.9844 19.4325 28.9844 16.7449V2.99414H32.2633V16.3015Z" fill="white"/>
<path fill-rule="evenodd" clip-rule="evenodd" d="M66.9967 13.3767V19.9343H63.6708V14.1017C63.6708 12.4328 63.8461 10.3265 61.5459 10.5216C60.9476 10.5688 59.2969 10.8346 59.2969 14.2476V19.9343H55.9976V14.1017C55.9976 12.4328 56.1725 10.3265 53.8727 10.5216C53.2722 10.5688 51.6236 10.8346 51.6236 14.2476V19.9343H48.3242V7.83369H51.3531L51.3559 9.5135C51.3559 9.5135 52.5134 7.71346 54.6724 7.71346C57.2741 7.71346 58.2952 9.67302 58.2952 9.67302C58.2952 9.67302 59.4153 7.68994 62.2725 7.68994C65.5211 7.68994 66.9967 10.0131 66.9967 13.3767Z" fill="white"/>
<path fill-rule="evenodd" clip-rule="evenodd" d="M126.201 14.3916V7.83398H129.527V13.6665C129.527 14.0782 129.226 17.1267 131.626 17.2467C132.802 17.3197 134.901 16.6913 134.901 13.5207V7.83398H138.2V19.9345H135.175L135.161 18.2548C135.161 18.2548 133.795 20.0548 131.249 20.0548C128.025 20.0548 126.201 17.7316 126.201 14.3916Z" fill="white"/>
<path fill-rule="evenodd" clip-rule="evenodd" d="M6.18102 15.3327L12.8823 18.431C13.7129 18.8151 14.2992 19.4599 14.6158 20.1995C15.4166 22.0724 14.3221 23.9879 12.604 24.6768C10.8855 25.3654 9.05404 24.9223 8.22127 22.9746L5.30487 16.1366C5.07887 15.6066 5.64659 15.0857 6.18102 15.3327Z" fill="white"/>
<path fill-rule="evenodd" clip-rule="evenodd" d="M6.58324 13.327L13.5008 10.712C15.7998 9.84297 18.3111 11.4873 18.2772 13.8765C18.2767 13.9078 18.2762 13.9389 18.2754 13.9704C18.2257 16.297 15.7842 17.8608 13.5357 17.0377L6.58979 14.4954C6.03572 14.2927 6.03163 13.5355 6.58324 13.327Z" fill="white"/>
<path fill-rule="evenodd" clip-rule="evenodd" d="M6.19749 12.4212L12.9977 9.53178C15.2573 8.57151 15.8308 5.68945 14.061 4.0242C14.0378 4.00227 14.0147 3.9806 13.9912 3.95894C12.256 2.3484 9.38771 2.91546 8.39988 5.03677L5.34837 11.5907C5.1049 12.1133 5.65516 12.6516 6.19749 12.4212Z" fill="white"/>
<path fill-rule="evenodd" clip-rule="evenodd" d="M4.4461 11.2793L6.91843 4.50021C7.22495 3.65966 7.16817 2.80247 6.85128 2.06286C6.04883 0.190727 3.87565 -0.413589 2.15773 0.27634C0.440091 0.966536 -0.5305 2.53401 0.303891 4.48093L3.23941 11.3115C3.46704 11.8408 4.24903 11.8199 4.4461 11.2793Z" fill="white"/>
</svg>
