<svg width="96" height="23" viewBox="0 0 96 23" fill="none" xmlns="http://www.w3.org/2000/svg">
<path d="M28.8297 19.0002L24.5977 2.90019H27.9097L30.7157 15.4812L34.0277 2.90019H37.4547L40.6747 15.4812L43.5037 2.90019H46.8387L42.4917 19.0002H38.7887L35.7067 7.27019L32.5097 19.0002H28.8297Z" fill="white"/>
<path d="M50.1043 19.2762C49.1383 19.2762 48.341 19.1229 47.7123 18.8162C47.0836 18.4942 46.616 18.0725 46.3093 17.5512C46.018 17.0145 45.8723 16.4242 45.8723 15.7802C45.8723 15.0749 46.0486 14.4539 46.4013 13.9172C46.7693 13.3805 47.3136 12.9589 48.0343 12.6522C48.7703 12.3455 49.6903 12.1922 50.7943 12.1922H53.6693C53.6693 11.6249 53.5926 11.1572 53.4393 10.7892C53.286 10.4059 53.0483 10.1222 52.7263 9.9382C52.4043 9.7542 51.975 9.6622 51.4383 9.6622C50.8556 9.6622 50.3573 9.79253 49.9433 10.0532C49.5446 10.2985 49.2993 10.6819 49.2073 11.2032H46.1943C46.271 10.3752 46.5393 9.6622 46.9993 9.0642C47.4746 8.45086 48.0956 7.97553 48.8623 7.6382C49.6443 7.30086 50.5106 7.13219 51.4613 7.13219C52.55 7.13219 53.493 7.3162 54.2903 7.6842C55.0876 8.0522 55.701 8.5812 56.1303 9.2712C56.5596 9.9612 56.7743 10.8122 56.7743 11.8242V19.0002H54.1523L53.8073 17.2292C53.6386 17.5359 53.4393 17.8119 53.2093 18.0572C52.9793 18.3025 52.711 18.5172 52.4043 18.7012C52.0976 18.8852 51.7526 19.0232 51.3693 19.1152C50.986 19.2225 50.5643 19.2762 50.1043 19.2762ZM50.8403 16.8842C51.239 16.8842 51.5916 16.8152 51.8983 16.6772C52.2203 16.5239 52.4963 16.3245 52.7263 16.0792C52.9563 15.8185 53.1326 15.5272 53.2553 15.2052C53.3933 14.8679 53.4853 14.5075 53.5313 14.1242V14.1012H51.1623C50.687 14.1012 50.296 14.1625 49.9893 14.2852C49.698 14.3925 49.4833 14.5535 49.3453 14.7682C49.2073 14.9829 49.1383 15.2282 49.1383 15.5042C49.1383 15.8109 49.2073 16.0639 49.3453 16.2632C49.4833 16.4625 49.6826 16.6159 49.9433 16.7232C50.204 16.8305 50.503 16.8842 50.8403 16.8842Z" fill="white"/>
<path d="M63.3771 19.0002C62.5644 19.0002 61.8514 18.8775 61.2381 18.6322C60.6401 18.3715 60.1724 17.9499 59.8351 17.3672C59.4978 16.7692 59.3291 15.9565 59.3291 14.9292V10.0072H57.3511V7.4082H59.3291L59.6741 4.2572H62.4341V7.4082H65.4931V10.0072H62.4341V14.9752C62.4341 15.4965 62.5491 15.8569 62.7791 16.0562C63.0091 16.2555 63.4001 16.3552 63.9521 16.3552H65.4701V19.0002H63.3771Z" fill="white"/>
<path d="M66.7953 19.0002V7.4082H69.9003V19.0002H66.7953ZM68.3593 5.8212C67.8073 5.8212 67.3473 5.6602 66.9793 5.33819C66.6266 5.00086 66.4503 4.57919 66.4503 4.07319C66.4503 3.56719 66.6266 3.1532 66.9793 2.8312C67.3473 2.49386 67.8073 2.3252 68.3593 2.3252C68.9266 2.3252 69.3866 2.49386 69.7393 2.8312C70.1073 3.1532 70.2913 3.56719 70.2913 4.07319C70.2913 4.57919 70.1073 5.00086 69.7393 5.33819C69.3866 5.6602 68.9266 5.8212 68.3593 5.8212Z" fill="white"/>
<path d="M77.1318 19.2762C76.0278 19.2762 75.0311 19.0232 74.1418 18.5172C73.2678 17.9959 72.5701 17.2829 72.0488 16.3782C71.5428 15.4582 71.2898 14.4079 71.2898 13.2272C71.2898 12.0159 71.5428 10.9579 72.0488 10.0532C72.5701 9.13319 73.2755 8.4202 74.1648 7.9142C75.0541 7.39286 76.0508 7.13219 77.1548 7.13219C78.2741 7.13219 79.2708 7.39286 80.1448 7.9142C81.0341 8.4202 81.7318 9.13319 82.2378 10.0532C82.7591 10.9579 83.0198 12.0082 83.0198 13.2042C83.0198 14.4002 82.7591 15.4582 82.2378 16.3782C81.7318 17.2829 81.0341 17.9959 80.1448 18.5172C79.2555 19.0232 78.2511 19.2762 77.1318 19.2762ZM77.1318 16.5852C77.6531 16.5852 78.1131 16.4625 78.5118 16.2172C78.9258 15.9719 79.2478 15.5962 79.4778 15.0902C79.7231 14.5842 79.8458 13.9555 79.8458 13.2042C79.8458 12.4529 79.7231 11.8319 79.4778 11.3412C79.2478 10.8352 78.9258 10.4595 78.5118 10.2142C78.1131 9.95353 77.6608 9.8232 77.1548 9.8232C76.6641 9.8232 76.2118 9.95353 75.7978 10.2142C75.3838 10.4595 75.0541 10.8352 74.8088 11.3412C74.5788 11.8319 74.4638 12.4529 74.4638 13.2042C74.4638 13.9555 74.5788 14.5842 74.8088 15.0902C75.0541 15.5962 75.3761 15.9719 75.7748 16.2172C76.1888 16.4625 76.6411 16.5852 77.1318 16.5852Z" fill="white"/>
<path d="M84.3159 19.0002V7.4082H87.0529L87.2829 9.2942C87.6356 8.6502 88.1339 8.12886 88.7779 7.7302C89.4372 7.33153 90.2192 7.13219 91.1239 7.13219C92.0899 7.13219 92.9026 7.33153 93.5619 7.7302C94.2212 8.12886 94.7196 8.71153 95.0569 9.4782C95.4096 10.2449 95.5859 11.1879 95.5859 12.3072V19.0002H92.5039V12.6062C92.5039 11.6862 92.3046 10.9809 91.9059 10.4902C91.5226 9.99953 90.9246 9.7542 90.1119 9.7542C89.5906 9.7542 89.1229 9.87686 88.7089 10.1222C88.3102 10.3675 87.9959 10.7202 87.7659 11.1802C87.5359 11.6249 87.4209 12.1692 87.4209 12.8132V19.0002H84.3159Z" fill="white"/>
<circle cx="4.45703" cy="19.5938" r="2.5" stroke="#2BAC30"/>
<circle cx="15.457" cy="19.5938" r="2.5" stroke="#2BAC30"/>
<mask id="mask0_2025_4549" style="mask-type:alpha" maskUnits="userSpaceOnUse" x="0" y="4" width="20" height="11">
<rect x="0.957031" y="5.09375" width="18" height="9" rx="1.5" stroke="#99E19C"/>
</mask>
<g mask="url(#mask0_2025_4549)">
<rect x="0.957031" y="5.09375" width="18" height="14" rx="1.5" stroke="#2BAC30"/>
</g>
<circle cx="14.957" cy="12.0938" r="1.5" fill="#2BAC30"/>
<path d="M0.956684 6.59505L0.956699 3.09522C0.956701 2.54294 1.40442 2.09523 1.9567 2.09523L9.94937 2.09523L15.4482 2.09523C16.2773 2.09523 16.9494 2.7673 16.9494 3.59635V3.59635" stroke="#2BAC30"/>
<path d="M2.45723 19.0941V19.0941C1.62873 19.094 0.957172 18.4223 0.957347 17.5938L0.959862 5.62947" stroke="#2BAC30"/>
<path d="M17.4566 19.0941V19.0941C18.2852 19.094 18.9569 18.4223 18.9569 17.5938L18.957 8.59399" stroke="#2BAC30"/>
<line x1="6.45703" y1="19.0938" x2="13.457" y2="19.0938" stroke="#2BAC30"/>
</svg>
