<svg width="20" height="23" viewBox="0 0 20 23" fill="none" xmlns="http://www.w3.org/2000/svg">
<circle cx="4.45703" cy="19.5938" r="2.5" stroke="#2BAC30"/>
<circle cx="15.457" cy="19.5938" r="2.5" stroke="#2BAC30"/>
<mask id="mask0_2025_4551" style="mask-type:alpha" maskUnits="userSpaceOnUse" x="0" y="4" width="20" height="11">
<rect x="0.957031" y="5.09375" width="18" height="9" rx="1.5" stroke="#99E19C"/>
</mask>
<g mask="url(#mask0_2025_4551)">
<rect x="0.957031" y="5.09375" width="18" height="14" rx="1.5" stroke="#2BAC30"/>
</g>
<circle cx="14.957" cy="12.0938" r="1.5" fill="#2BAC30"/>
<path d="M0.956684 6.59505L0.956699 3.09522C0.956701 2.54294 1.40442 2.09523 1.9567 2.09523L9.94937 2.09523L15.4482 2.09523C16.2773 2.09523 16.9494 2.7673 16.9494 3.59635V3.59635" stroke="#2BAC30"/>
<path d="M2.45723 19.0941V19.0941C1.62873 19.094 0.957172 18.4223 0.957347 17.5938L0.959862 5.62947" stroke="#2BAC30"/>
<path d="M17.4566 19.0941V19.0941C18.2852 19.094 18.9569 18.4223 18.9569 17.5938L18.957 8.59399" stroke="#2BAC30"/>
<line x1="6.45703" y1="19.0938" x2="13.457" y2="19.0938" stroke="#2BAC30"/>
</svg>
