<svg width="116" height="29" viewBox="0 0 116 29" fill="none" xmlns="http://www.w3.org/2000/svg">
<path d="M43.3462 6.33154H36.9312C36.4923 6.33154 36.1189 6.65051 36.0505 7.08394L33.456 23.5362C33.4044 23.8608 33.6557 24.1535 33.985 24.1535H37.0475C37.4865 24.1535 37.8599 23.8345 37.9283 23.4002L38.6281 18.9627C38.6956 18.5284 39.0699 18.2094 39.5079 18.2094H41.5387C45.7644 18.2094 48.2032 16.1642 48.8401 12.1115C49.1271 10.3384 48.8522 8.94522 48.0221 7.96955C47.1104 6.89818 45.4933 6.33154 43.3462 6.33154ZM44.0863 12.3404C43.7355 14.6426 41.9767 14.6426 40.2761 14.6426H39.3081L39.9872 10.3431C40.0276 10.0832 40.2527 9.89181 40.5153 9.89181H40.959C42.1174 9.89181 43.2102 9.89181 43.7749 10.5523C44.1116 10.9463 44.2148 11.5317 44.0863 12.3404Z" fill="white"/>
<path d="M62.5217 12.2665H59.4498C59.1881 12.2665 58.962 12.4579 58.9217 12.7177L58.7857 13.5771L58.5709 13.2656C57.9059 12.3003 56.4229 11.9775 54.9427 11.9775C51.5481 11.9775 48.6488 14.549 48.0841 18.1562C47.7905 19.9555 48.2079 21.6761 49.2284 22.876C50.1646 23.9792 51.504 24.4389 53.0977 24.4389C55.8329 24.4389 57.3496 22.6799 57.3496 22.6799L57.2127 23.5336C57.1611 23.8601 57.4125 24.1528 57.7398 24.1528H60.5069C60.9468 24.1528 61.3183 23.8338 61.3877 23.3995L63.048 12.8838C63.1005 12.5601 62.85 12.2665 62.5217 12.2665ZM58.2398 18.2462C57.9434 20.0015 56.5505 21.1798 54.7739 21.1798C53.8818 21.1798 53.169 20.8937 52.7112 20.3514C52.2572 19.8129 52.0846 19.0465 52.2291 18.1928C52.5058 16.4525 53.9222 15.2357 55.6715 15.2357C56.5439 15.2357 57.253 15.5256 57.7201 16.0725C58.1882 16.6251 58.3739 17.3963 58.2398 18.2462Z" fill="white"/>
<path d="M78.8809 12.2661H75.794C75.4994 12.2661 75.2227 12.4125 75.0558 12.6573L70.7982 18.9298L68.9935 12.9022C68.88 12.525 68.532 12.2661 68.138 12.2661H65.1045C64.7359 12.2661 64.4798 12.6264 64.5971 12.9735L67.9973 22.9535L64.8006 27.4669C64.5492 27.8224 64.8025 28.3112 65.2368 28.3112H68.32C68.6127 28.3112 68.8865 28.1686 69.0526 27.9285L79.3199 13.1058C79.5657 12.7511 79.3133 12.2661 78.8809 12.2661Z" fill="white"/>
<path d="M89.1021 6.33154H82.6862C82.2481 6.33154 81.8748 6.65051 81.8063 7.08394L79.2118 23.5362C79.1602 23.8608 79.4116 24.1535 79.739 24.1535H83.0313C83.3371 24.1535 83.5988 23.9302 83.6467 23.6263L84.383 18.9627C84.4505 18.5284 84.8248 18.2094 85.2628 18.2094H87.2927C91.5193 18.2094 93.9571 16.1642 94.595 12.1115C94.8829 10.3384 94.6062 8.94522 93.7761 7.96955C92.8653 6.89818 91.2491 6.33154 89.1021 6.33154ZM89.8421 12.3404C89.4923 14.6426 87.7335 14.6426 86.032 14.6426H85.0649L85.745 10.3431C85.7853 10.0832 86.0085 9.89181 86.2721 9.89181H86.7158C87.8733 9.89181 88.967 9.89181 89.5317 10.5523C89.8684 10.9463 89.9706 11.5317 89.8421 12.3404Z" fill="white"/>
<path d="M108.277 12.2665H105.207C104.944 12.2665 104.72 12.4579 104.68 12.7177L104.544 13.5771L104.329 13.2656C103.663 12.3003 102.181 11.9775 100.701 11.9775C97.3067 11.9775 94.4083 14.549 93.8436 18.1562C93.5509 19.9555 93.9665 21.6761 94.987 22.876C95.925 23.9792 97.2626 24.4389 98.8562 24.4389C101.591 24.4389 103.108 22.6799 103.108 22.6799L102.971 23.5336C102.92 23.8601 103.171 24.1528 103.5 24.1528H106.266C106.704 24.1528 107.078 23.8338 107.146 23.3995L108.807 12.8838C108.858 12.5601 108.607 12.2665 108.277 12.2665ZM103.996 18.2462C103.701 20.0015 102.306 21.1798 100.53 21.1798C99.6395 21.1798 98.9247 20.8937 98.467 20.3514C98.013 19.8129 97.8423 19.0465 97.9848 18.1928C98.2634 16.4525 99.6779 15.2357 101.427 15.2357C102.3 15.2357 103.009 15.5256 103.476 16.0725C103.946 16.6251 104.132 17.3963 103.996 18.2462Z" fill="white"/>
<path d="M111.898 6.78275L109.265 23.5362C109.213 23.8608 109.464 24.1535 109.792 24.1535H112.439C112.879 24.1535 113.252 23.8345 113.32 23.4001L115.916 6.9488C115.967 6.62421 115.716 6.33057 115.389 6.33057H112.425C112.163 6.3315 111.938 6.52289 111.898 6.78275Z" fill="white"/>
<path d="M6.81442 27.3505L7.30499 24.234L6.21222 24.2086H0.994141L4.62044 1.21187C4.6317 1.14245 4.66828 1.07772 4.72174 1.03175C4.77521 0.985779 4.84368 0.960449 4.91497 0.960449H13.7134C16.6343 0.960449 18.6501 1.56837 19.7025 2.76826C20.1959 3.33114 20.5101 3.91936 20.6621 4.56668C20.8215 5.2459 20.8244 6.05739 20.6686 7.04714L20.6574 7.11938V7.75356L21.1508 8.03313C21.5663 8.25359 21.8965 8.50595 22.1497 8.7949C22.5718 9.27617 22.8448 9.88784 22.9602 10.613C23.0793 11.3589 23.0399 12.2463 22.8448 13.2511C22.6197 14.4069 22.2557 15.4135 21.7642 16.2372C21.3121 16.9962 20.7362 17.6257 20.0524 18.1135C19.3995 18.5769 18.6238 18.9288 17.7468 19.1539C16.897 19.3753 15.928 19.4869 14.8653 19.4869H14.1805C13.6909 19.4869 13.2153 19.6633 12.842 19.9795C12.4677 20.3022 12.2201 20.7431 12.1441 21.2253L12.0925 21.5058L11.2258 26.9987L11.1864 27.2004C11.1761 27.2642 11.1583 27.2961 11.132 27.3177C11.1086 27.3374 11.0748 27.3505 11.042 27.3505H6.81442Z" fill="white"/>
<path d="M21.619 7.19287C21.5928 7.3608 21.5627 7.53248 21.529 7.70885C20.3687 13.667 16.3991 15.7253 11.3292 15.7253H8.74781C8.1278 15.7253 7.60533 16.1756 7.50872 16.7873L6.18708 25.1706L5.81282 27.5469C5.74997 27.9484 6.05951 28.3105 6.46473 28.3105H11.0431C11.5853 28.3105 12.0458 27.9165 12.1312 27.3818L12.1762 27.1491L13.0382 21.6778L13.0936 21.3776C13.178 20.841 13.6395 20.447 14.1816 20.447H14.8664C19.3022 20.447 22.7746 18.6458 23.7895 13.4334C24.2135 11.256 23.994 9.43785 22.8722 8.15916C22.5326 7.77358 22.1115 7.45368 21.619 7.19287Z" fill="white"/>
<path d="M20.4043 6.70853C20.2271 6.65693 20.0442 6.61002 19.8566 6.56781C19.668 6.52653 19.4748 6.48994 19.2759 6.45804C18.5799 6.34547 17.8173 6.29199 17.0004 6.29199H10.1042C9.93441 6.29199 9.77308 6.33046 9.62863 6.39988C9.31064 6.5528 9.07427 6.85394 9.01705 7.22263L7.55002 16.5159L7.50781 16.787C7.60443 16.1754 8.12689 15.725 8.74691 15.725H11.3283C16.3982 15.725 20.3678 13.6658 21.5281 7.70859C21.5628 7.53222 21.5918 7.36054 21.6181 7.19261C21.3245 7.03688 21.0065 6.90366 20.6642 6.79015C20.5798 6.762 20.4925 6.7348 20.4043 6.70853Z" fill="white"/>
<path d="M9.0179 7.22278C9.07512 6.85409 9.31149 6.55295 9.62947 6.40097C9.77486 6.33155 9.93526 6.29308 10.105 6.29308H17.0012C17.8182 6.29308 18.5808 6.34656 19.2768 6.45913C19.4756 6.49103 19.6689 6.52762 19.8574 6.5689C20.045 6.61111 20.2279 6.65802 20.4052 6.70962C20.4934 6.73589 20.5806 6.76309 20.666 6.7903C21.0083 6.90381 21.3263 7.03797 21.6199 7.19276C21.9651 4.99094 21.6171 3.49178 20.4268 2.13428C19.1145 0.639815 16.7461 0 13.7154 0H4.91697C4.2979 0 3.7698 0.45031 3.67413 1.06292L0.00936949 24.2961C-0.0628563 24.7558 0.291707 25.1705 0.755078 25.1705H6.18702L7.55087 16.5161L9.0179 7.22278Z" fill="white"/>
</svg>
