<svg width="66" height="28" viewBox="0 0 66 28" fill="none" xmlns="http://www.w3.org/2000/svg">
<path fill-rule="evenodd" clip-rule="evenodd" d="M66 14.1875C66 9.49419 63.7271 5.78982 59.3808 5.78982C55.0185 5.78982 52.3772 9.4934 52.3772 14.15C52.3772 19.6687 55.4938 22.4551 59.9669 22.4551C62.1489 22.4551 63.7989 21.9607 65.0454 21.2636V17.5968C63.7989 18.2204 62.369 18.6048 60.5539 18.6048C58.7755 18.6048 57.1988 17.9812 56.9971 15.8183H65.9609C65.9609 15.5791 65.9976 14.6269 65.9976 14.1867L66 14.1875ZM56.9508 12.4465C56.9508 10.3746 58.2156 9.51333 59.3712 9.51333C60.4893 9.51333 61.6816 10.3746 61.6816 12.4465H56.9508ZM45.3098 5.79142C43.513 5.79142 42.359 6.63437 41.7162 7.22133L41.477 6.0849H37.4361V27.4618L42.0193 26.4904L42.0376 21.3019C42.698 21.7788 43.6693 22.4567 45.2834 22.4567C48.5651 22.4567 51.5534 19.825 51.5534 14.0048C51.535 8.68793 48.5101 5.79062 45.301 5.79062L45.3098 5.79142ZM44.2092 18.4238C43.1278 18.4238 42.4866 18.0386 42.0456 17.5625L42.0273 10.7598C42.5042 10.2279 43.1637 9.86184 44.2092 9.86184C45.8776 9.86184 47.0323 11.732 47.0323 14.1332C47.0323 16.5895 45.8959 18.4238 44.2092 18.4238ZM31.1303 4.71001L35.7318 3.72112V0L31.1303 0.971351V4.71001ZM31.1303 6.10324H35.7318V22.1449H31.1303V6.10324ZM26.1978 7.45898L25.9043 6.10324H21.9439V22.1465H26.5271V11.2734C27.6085 9.86184 29.442 10.1186 30.0106 10.3204V6.10404C29.4236 5.88393 27.2792 5.48039 26.197 7.45978L26.1978 7.45898ZM17.0313 2.11576L12.5582 3.07036L12.5398 17.7555C12.5398 20.4685 14.575 22.4671 17.2881 22.4671C18.7914 22.4671 19.8912 22.1919 20.4965 21.861V18.1391C19.9095 18.3783 17.013 19.2205 17.013 16.5074V10.0086H20.4965V6.10324H17.0114L17.0313 2.11576ZM4.63824 10.751C4.63824 10.0357 5.2252 9.76215 6.19655 9.76215C7.78209 9.79593 9.33816 10.1972 10.7423 10.9345V6.63517C9.22065 6.02907 7.71737 5.79222 6.19655 5.79222C2.47463 5.79222 0 7.73572 0 10.9807C0 16.0408 6.96693 15.2338 6.96693 17.4165C6.96693 18.2595 6.23323 18.5346 5.20685 18.5346C3.68523 18.5346 1.74173 17.911 0.201767 17.0672V21.4295C1.90681 22.1632 3.631 22.4663 5.20685 22.4663C9.02048 22.4663 11.6427 20.5778 11.6427 17.2961C11.6243 11.8333 4.63824 12.8046 4.63824 10.751Z" fill="white"/>
</svg>
